<svg width="15" height="16" viewBox="0 0 15 16" fill="none" xmlns="http://www.w3.org/2000/svg">
<path d="M7.5 0.5C3.365 0.5 0 3.865 0 8C0 12.135 3.365 15.5 7.5 15.5C11.635 15.5 15 12.135 15 8C15 3.865 11.635 0.5 7.5 0.5ZM7.5 1.75C10.9594 1.75 13.75 4.54063 13.75 8C13.7515 9.49623 13.215 10.9431 12.2383 12.0766C11.2617 13.2101 9.91001 13.9547 8.43 14.1744V9.8225H10.21L10.4894 8.01438H8.43V7.02688C8.43 6.27688 8.67688 5.61 9.37875 5.61H10.5069V4.0325C10.3088 4.00563 9.88937 3.9475 9.09688 3.9475C7.44187 3.9475 6.47187 4.82125 6.47187 6.8125V8.01438H4.77063V9.8225H6.47187V14.1588C5.01234 13.9185 3.68577 13.1672 2.72918 12.039C1.77259 10.9108 1.24831 9.47917 1.25 8C1.25 4.54063 4.04063 1.75 7.5 1.75Z" fill="#1E1E1E"/>
</svg>
