<svg width="23" height="23" viewBox="0 0 23 23" fill="none" xmlns="http://www.w3.org/2000/svg">
<g clip-path="url(#clip0_109_596)">
<path d="M15.7966 8.46909C17.1758 9.4585 18.8654 10.0406 20.6902 10.0406V6.51662C20.3448 6.5167 20.0004 6.48056 19.6625 6.40872V9.18262C17.8378 9.18262 16.1485 8.60048 14.7689 7.61114V14.8026C14.7689 18.4002 11.8629 21.3164 8.27833 21.3164C6.94085 21.3164 5.69771 20.9106 4.66504 20.2147C5.84367 21.4241 7.48735 22.1743 9.3058 22.1743C12.8906 22.1743 15.7968 19.2582 15.7968 15.6604V8.46909H15.7966ZM17.0644 4.91378C16.3595 4.141 15.8967 3.14231 15.7966 2.03823V1.58496H14.8227C15.0679 2.98826 15.904 4.18715 17.0644 4.91378ZM6.93227 17.454C6.53847 16.9358 6.32566 16.3019 6.32661 15.6501C6.32661 14.0048 7.65581 12.6707 9.29568 12.6707C9.6013 12.6706 9.90508 12.7175 10.1963 12.8103V9.2075C9.85597 9.16069 9.51245 9.14082 9.16908 9.1481V11.9523C8.87761 11.8596 8.57368 11.8125 8.26799 11.8128C6.62812 11.8128 5.299 13.1467 5.299 14.7923C5.299 15.9559 5.96338 16.9633 6.93227 17.454Z" fill="#FF2424"/>
<path d="M14.7692 7.61107C16.1488 8.6004 17.8381 9.18255 19.6628 9.18255V6.40864C18.6443 6.19092 17.7426 5.65676 17.0647 4.91378C15.9042 4.18707 15.0681 2.98818 14.823 1.58496H12.2649V15.6603C12.2591 17.3012 10.9322 18.6299 9.29582 18.6299C8.33155 18.6299 7.47488 18.1686 6.93234 17.454C5.96352 16.9633 5.29914 15.9558 5.29914 14.7924C5.29914 13.147 6.62826 11.8129 8.26814 11.8129C8.58233 11.8129 8.88516 11.8619 9.16922 11.9524V9.14818C5.64764 9.22119 2.81543 12.1089 2.81543 15.6604C2.81543 17.4332 3.52071 19.0404 4.6654 20.2147C5.69807 20.9106 6.94121 21.3165 8.27869 21.3165C11.8633 21.3165 14.7693 18.4001 14.7693 14.8026V7.61107H14.7692Z" fill="#FF2424"/>
</g>
<defs>
<clipPath id="clip0_109_596">
<rect width="22.3409" height="22.3409" fill="white" transform="translate(0 0.280273)"/>
</clipPath>
</defs>
</svg>
