<svg width="23" height="23" viewBox="0 0 23 23" fill="none" xmlns="http://www.w3.org/2000/svg">
<g clip-path="url(#clip0_109_597)">
<path d="M21.7893 10.8654C21.7893 16.7114 17.0502 21.4505 11.2042 21.4505C5.35825 21.4505 0.619141 16.7114 0.619141 10.8654C0.619141 5.01938 5.35825 0.280273 11.2042 0.280273C17.0502 0.280273 21.7893 5.01938 21.7893 10.8654Z" fill="#FF2424"/>
<path d="M21.7893 10.8654C21.7893 16.7114 17.0502 21.4505 11.2042 21.4505C5.35825 21.4505 0.619141 16.7114 0.619141 10.8654C0.619141 5.01938 5.35825 0.280273 11.2042 0.280273C17.0502 0.280273 21.7893 5.01938 21.7893 10.8654Z" fill="#FF2424"/>
<path d="M9.51062 14.0409V21.2388C9.51062 21.3557 9.6054 21.4505 9.72232 21.4505H12.6861C12.8031 21.4505 12.8979 21.3557 12.8979 21.2388V14.0409C12.8979 13.924 12.9926 13.8292 13.1096 13.8292H15.2266C15.3435 13.8292 15.4383 13.7344 15.4383 13.6175V11.0771C15.4383 10.9601 15.3435 10.8654 15.2266 10.8654H13.1096C12.9926 10.8654 12.8979 10.7707 12.8979 10.6538V8.74835C12.8979 7.90154 13.9564 7.47814 14.3798 7.47814H15.65C15.7669 7.47814 15.8617 7.38336 15.8617 7.26644V4.72601C15.8617 4.60909 15.7669 4.51431 15.65 4.51431H12.8979C10.8655 4.51431 9.51062 6.63133 9.51062 7.90154V10.6537C9.51062 10.7706 9.41584 10.8654 9.29892 10.8654H7.1819C7.06498 10.8654 6.9702 10.9601 6.9702 11.0771V13.6175C6.9702 13.7344 7.06498 13.8292 7.1819 13.8292H9.29892C9.41584 13.8292 9.51062 13.924 9.51062 14.0409Z" fill="#1E1E1E"/>
</g>
<defs>
<clipPath id="clip0_109_597">
<rect width="22.3409" height="22.3409" fill="white" transform="translate(0.619141 0.280273)"/>
</clipPath>
</defs>
</svg>
