<svg width="23" height="23" viewBox="0 0 23 23" fill="none" xmlns="http://www.w3.org/2000/svg">
<g clip-path="url(#clip0_109_600)">
<path d="M9.17561 14.7073V8.19351L14.9842 11.4504L9.17561 14.7073Z" fill="#1E1E1E"/>
<path d="M22.1088 6.22627C21.9817 5.76745 21.7327 5.34911 21.3869 5.01313C21.041 4.67714 20.6104 4.4353 20.1381 4.3118C18.3988 3.85449 11.4097 3.85449 11.4097 3.85449C11.4097 3.85449 4.42057 3.85449 2.68127 4.3118C2.20897 4.4353 1.77835 4.67714 1.43251 5.01313C1.08666 5.34911 0.837713 5.76745 0.710587 6.22627C0.385821 7.94951 0.22822 9.69855 0.239858 11.4504C0.22822 13.2022 0.385821 14.9513 0.710587 16.6745C0.837713 17.1333 1.08666 17.5517 1.43251 17.8877C1.77835 18.2236 2.20897 18.4655 2.68127 18.589C4.42057 19.0463 11.4097 19.0463 11.4097 19.0463C11.4097 19.0463 18.3988 19.0463 20.1381 18.589C20.6104 18.4655 21.041 18.2236 21.3869 17.8877C21.7327 17.5517 21.9817 17.1333 22.1088 16.6745C22.4336 14.9513 22.5912 13.2022 22.5795 11.4504C22.5912 9.69855 22.4336 7.94951 22.1088 6.22627ZM9.17573 14.7058V8.19501L14.9761 11.4504L9.17573 14.7058Z" fill="#FF2424"/>
</g>
<defs>
<clipPath id="clip0_109_600">
<rect width="22.3409" height="22.3409" fill="white" transform="translate(0.239258 0.280273)"/>
</clipPath>
</defs>
</svg>
