<svg width="24" height="23" viewBox="0 0 24 23" fill="none" xmlns="http://www.w3.org/2000/svg">
<g clip-path="url(#clip0_109_602)">
<path fill-rule="evenodd" clip-rule="evenodd" d="M7.42357 0.347296C8.61475 0.292459 8.99454 0.280273 12.0288 0.280273C15.0631 0.280273 15.4429 0.293475 16.6331 0.347296C17.8233 0.401117 18.6357 0.591015 19.3465 0.866214C20.0909 1.14751 20.7662 1.58722 21.3247 2.15589C21.8934 2.7134 22.3321 3.38769 22.6123 4.13306C22.8885 4.84391 23.0774 5.6563 23.1323 6.84443C23.1871 8.03764 23.1993 8.41743 23.1993 11.4507C23.1993 14.485 23.1861 14.8648 23.1323 16.056C23.0784 17.2441 22.8885 18.0565 22.6123 18.7674C22.332 19.5128 21.8926 20.1882 21.3247 20.7466C20.7662 21.3152 20.0909 21.7539 19.3465 22.0342C18.6357 22.3104 17.8233 22.4993 16.6351 22.5541C15.4429 22.609 15.0631 22.6212 12.0288 22.6212C8.99454 22.6212 8.61475 22.608 7.42357 22.5541C6.23544 22.5003 5.42305 22.3104 4.7122 22.0342C3.96675 21.7539 3.29134 21.3145 2.733 20.7466C2.16471 20.1887 1.72494 19.5136 1.44434 18.7684C1.16914 18.0575 0.980258 17.2451 0.925421 16.057C0.870584 14.8638 0.858398 14.484 0.858398 11.4507C0.858398 8.41642 0.8716 8.03662 0.925421 6.84646C0.979242 5.6563 1.16914 4.84391 1.44434 4.13306C1.72535 3.38777 2.16546 2.7127 2.73402 2.15488C3.29157 1.58671 3.96629 1.14694 4.71119 0.866214C5.42203 0.591015 6.23443 0.402133 7.42256 0.347296H7.42357ZM16.5427 2.35798C15.3647 2.30415 15.0114 2.29298 12.0288 2.29298C9.04633 2.29298 8.69294 2.30415 7.51497 2.35798C6.42534 2.40774 5.83432 2.58951 5.44031 2.74285C4.91936 2.94595 4.54668 3.18662 4.15571 3.57759C3.7851 3.93814 3.49988 4.37707 3.32097 4.86219C3.16763 5.2562 2.98586 5.84722 2.9361 6.93684C2.88228 8.11482 2.87111 8.46821 2.87111 11.4507C2.87111 14.4332 2.88228 14.7866 2.9361 15.9646C2.98586 17.0542 3.16763 17.6452 3.32097 18.0393C3.4997 18.5236 3.78506 18.9634 4.15571 19.3239C4.51621 19.6945 4.95592 19.9799 5.44031 20.1586C5.83432 20.3119 6.42534 20.4937 7.51497 20.5435C8.69294 20.5973 9.04532 20.6085 12.0288 20.6085C15.0124 20.6085 15.3647 20.5973 16.5427 20.5435C17.6323 20.4937 18.2234 20.3119 18.6174 20.1586C19.1383 19.9555 19.511 19.7148 19.902 19.3239C20.2726 18.9634 20.558 18.5236 20.7367 18.0393C20.8901 17.6452 21.0718 17.0542 21.1216 15.9646C21.1754 14.7866 21.1866 14.4332 21.1866 11.4507C21.1866 8.46821 21.1754 8.11482 21.1216 6.93684C21.0718 5.84722 20.8901 5.2562 20.7367 4.86219C20.5336 4.34124 20.2929 3.96855 19.902 3.57759C19.5414 3.207 19.1025 2.92179 18.6174 2.74285C18.2234 2.58951 17.6323 2.40774 16.5427 2.35798ZM10.6021 14.8943C11.3989 15.226 12.2861 15.2707 13.1123 15.0209C13.9385 14.7711 14.6523 14.2422 15.1318 13.5246C15.6113 12.807 15.8269 11.9451 15.7415 11.0863C15.6562 10.2274 15.2754 9.42478 14.6641 8.81551C14.2743 8.42604 13.8031 8.12783 13.2843 7.94233C12.7655 7.75684 12.2121 7.68867 11.6638 7.74276C11.1155 7.79684 10.586 7.97181 10.1134 8.25509C9.64086 8.53836 9.23699 8.92289 8.93087 9.38099C8.62476 9.83909 8.42403 10.3594 8.34312 10.9043C8.26221 11.4493 8.30315 12.0055 8.46297 12.5327C8.6228 13.06 8.89754 13.5453 9.26743 13.9536C9.63731 14.362 10.0931 14.6832 10.6021 14.8943ZM7.96889 7.39077C8.50205 6.85761 9.13501 6.43468 9.83161 6.14614C10.5282 5.85759 11.2748 5.70908 12.0288 5.70908C12.7828 5.70908 13.5295 5.85759 14.2261 6.14614C14.9227 6.43468 15.5556 6.85761 16.0888 7.39077C16.622 7.92393 17.0449 8.55688 17.3334 9.25349C17.622 9.9501 17.7705 10.6967 17.7705 11.4507C17.7705 12.2047 17.622 12.9513 17.3334 13.6479C17.0449 14.3446 16.622 14.9775 16.0888 15.5107C15.012 16.5874 13.5516 17.1924 12.0288 17.1924C10.5061 17.1924 9.04566 16.5874 7.96889 15.5107C6.89213 14.4339 6.28721 12.9735 6.28721 11.4507C6.28721 9.92794 6.89213 8.46753 7.96889 7.39077ZM19.0439 6.56416C19.176 6.43952 19.2818 6.28965 19.3549 6.1234C19.4281 5.95716 19.4672 5.77793 19.4698 5.59632C19.4724 5.41471 19.4386 5.23441 19.3703 5.06611C19.3021 4.8978 19.2007 4.74491 19.0723 4.61648C18.9438 4.48805 18.791 4.38669 18.6226 4.31841C18.4543 4.25013 18.274 4.21631 18.0924 4.21896C17.9108 4.2216 17.7316 4.26066 17.5653 4.33382C17.3991 4.40698 17.2492 4.51275 17.1246 4.64487C16.8822 4.90182 16.7495 5.24312 16.7547 5.59632C16.7598 5.94952 16.9024 6.2868 17.1522 6.53658C17.4019 6.78635 17.7392 6.92895 18.0924 6.9341C18.4456 6.93925 18.7869 6.80654 19.0439 6.56416Z" fill="#FF2424"/>
</g>
<defs>
<clipPath id="clip0_109_602">
<rect width="22.3409" height="22.3409" fill="white" transform="translate(0.858398 0.280273)"/>
</clipPath>
</defs>
</svg>
