<svg width="21" height="20" viewBox="0 0 21 20" fill="none" xmlns="http://www.w3.org/2000/svg">
<path d="M10.5001 5.99414C8.2833 5.99414 6.49423 7.7832 6.49423 10C6.49423 12.2168 8.2833 14.0059 10.5001 14.0059C12.7169 14.0059 14.506 12.2168 14.506 10C14.506 7.7832 12.7169 5.99414 10.5001 5.99414ZM10.5001 12.6035C9.0665 12.6035 7.89658 11.4336 7.89658 10C7.89658 8.56641 9.0665 7.39648 10.5001 7.39648C11.9337 7.39648 13.1036 8.56641 13.1036 10C13.1036 11.4336 11.9337 12.6035 10.5001 12.6035ZM14.67 4.89648C14.1524 4.89648 13.7345 5.31445 13.7345 5.83203C13.7345 6.34961 14.1524 6.76758 14.67 6.76758C15.1876 6.76758 15.6056 6.35156 15.6056 5.83203C15.6057 5.70913 15.5816 5.58741 15.5347 5.47383C15.4877 5.36026 15.4188 5.25706 15.3319 5.17016C15.245 5.08325 15.1418 5.01435 15.0282 4.96738C14.9146 4.92042 14.7929 4.89633 14.67 4.89648ZM18.3087 10C18.3087 8.92188 18.3185 7.85352 18.2579 6.77734C18.1974 5.52734 17.9122 4.41797 16.9981 3.50391C16.0821 2.58789 14.9747 2.30469 13.7247 2.24414C12.6466 2.18359 11.5782 2.19336 10.502 2.19336C9.42392 2.19336 8.35556 2.18359 7.27939 2.24414C6.02939 2.30469 4.92001 2.58984 4.00595 3.50391C3.08994 4.41992 2.80673 5.52734 2.74619 6.77734C2.68564 7.85547 2.69541 8.92383 2.69541 10C2.69541 11.0762 2.68564 12.1465 2.74619 13.2227C2.80673 14.4727 3.09189 15.582 4.00595 16.4961C4.92197 17.4121 6.02939 17.6953 7.27939 17.7559C8.35751 17.8164 9.42587 17.8066 10.502 17.8066C11.5802 17.8066 12.6485 17.8164 13.7247 17.7559C14.9747 17.6953 16.0841 17.4102 16.9981 16.4961C17.9142 15.5801 18.1974 14.4727 18.2579 13.2227C18.3204 12.1465 18.3087 11.0781 18.3087 10ZM16.5899 14.6055C16.4474 14.9609 16.2755 15.2266 16.0001 15.5C15.7247 15.7754 15.461 15.9473 15.1056 16.0898C14.0782 16.498 11.6388 16.4062 10.5001 16.4062C9.36142 16.4062 6.92001 16.498 5.89267 16.0918C5.5372 15.9492 5.27158 15.7773 4.99814 15.502C4.72275 15.2266 4.55087 14.9629 4.4083 14.6074C4.00205 13.5781 4.09384 11.1387 4.09384 10C4.09384 8.86133 4.00205 6.41992 4.4083 5.39258C4.55087 5.03711 4.72275 4.77148 4.99814 4.49805C5.27353 4.22461 5.5372 4.05078 5.89267 3.9082C6.92001 3.50195 9.36142 3.59375 10.5001 3.59375C11.6388 3.59375 14.0802 3.50195 15.1075 3.9082C15.463 4.05078 15.7286 4.22266 16.002 4.49805C16.2774 4.77344 16.4493 5.03711 16.5919 5.39258C16.9981 6.41992 16.9063 8.86133 16.9063 10C16.9063 11.1387 16.9981 13.5781 16.5899 14.6055Z" fill="#1E1E1E"/>
<path d="M10.5001 5.99414C8.2833 5.99414 6.49423 7.7832 6.49423 10C6.49423 12.2168 8.2833 14.0059 10.5001 14.0059C12.7169 14.0059 14.506 12.2168 14.506 10C14.506 7.7832 12.7169 5.99414 10.5001 5.99414ZM10.5001 12.6035C9.0665 12.6035 7.89658 11.4336 7.89658 10C7.89658 8.56641 9.0665 7.39648 10.5001 7.39648C11.9337 7.39648 13.1036 8.56641 13.1036 10C13.1036 11.4336 11.9337 12.6035 10.5001 12.6035ZM14.67 4.89648C14.1524 4.89648 13.7345 5.31445 13.7345 5.83203C13.7345 6.34961 14.1524 6.76758 14.67 6.76758C15.1876 6.76758 15.6056 6.35156 15.6056 5.83203C15.6057 5.70913 15.5816 5.58741 15.5347 5.47383C15.4877 5.36026 15.4188 5.25706 15.3319 5.17016C15.245 5.08325 15.1418 5.01435 15.0282 4.96738C14.9146 4.92042 14.7929 4.89633 14.67 4.89648ZM18.3087 10C18.3087 8.92188 18.3185 7.85352 18.2579 6.77734C18.1974 5.52734 17.9122 4.41797 16.9981 3.50391C16.0821 2.58789 14.9747 2.30469 13.7247 2.24414C12.6466 2.18359 11.5782 2.19336 10.502 2.19336C9.42392 2.19336 8.35556 2.18359 7.27939 2.24414C6.02939 2.30469 4.92001 2.58984 4.00595 3.50391C3.08994 4.41992 2.80673 5.52734 2.74619 6.77734C2.68564 7.85547 2.69541 8.92383 2.69541 10C2.69541 11.0762 2.68564 12.1465 2.74619 13.2227C2.80673 14.4727 3.09189 15.582 4.00595 16.4961C4.92197 17.4121 6.02939 17.6953 7.27939 17.7559C8.35751 17.8164 9.42587 17.8066 10.502 17.8066C11.5802 17.8066 12.6485 17.8164 13.7247 17.7559C14.9747 17.6953 16.0841 17.4102 16.9981 16.4961C17.9142 15.5801 18.1974 14.4727 18.2579 13.2227C18.3204 12.1465 18.3087 11.0781 18.3087 10ZM16.5899 14.6055C16.4474 14.9609 16.2755 15.2266 16.0001 15.5C15.7247 15.7754 15.461 15.9473 15.1056 16.0898C14.0782 16.498 11.6388 16.4062 10.5001 16.4062C9.36142 16.4062 6.92001 16.498 5.89267 16.0918C5.5372 15.9492 5.27158 15.7773 4.99814 15.502C4.72275 15.2266 4.55087 14.9629 4.4083 14.6074C4.00205 13.5781 4.09384 11.1387 4.09384 10C4.09384 8.86133 4.00205 6.41992 4.4083 5.39258C4.55087 5.03711 4.72275 4.77148 4.99814 4.49805C5.27353 4.22461 5.5372 4.05078 5.89267 3.9082C6.92001 3.50195 9.36142 3.59375 10.5001 3.59375C11.6388 3.59375 14.0802 3.50195 15.1075 3.9082C15.463 4.05078 15.7286 4.22266 16.002 4.49805C16.2774 4.77344 16.4493 5.03711 16.5919 5.39258C16.9981 6.41992 16.9063 8.86133 16.9063 10C16.9063 11.1387 16.9981 13.5781 16.5899 14.6055Z" fill="#1E1E1E"/>
</svg>
