<svg width="17" height="16" viewBox="0 0 17 16" fill="none" xmlns="http://www.w3.org/2000/svg">
<g clip-path="url(#clip0_67_339)">
<path d="M11.813 5.99808C12.8007 6.66238 14.0108 7.05325 15.3176 7.05325V4.68717C15.0703 4.68722 14.8236 4.66295 14.5816 4.61472V6.47716C13.2749 6.47716 12.065 6.0863 11.077 5.42204V10.2505C11.077 12.666 8.99574 14.6239 6.42857 14.6239C5.4707 14.6239 4.5804 14.3515 3.84082 13.8842C4.68492 14.6962 5.86209 15.2 7.16442 15.2C9.73175 15.2 11.8131 13.242 11.8131 10.8265V5.99808H11.813ZM12.7209 3.611C12.2161 3.09214 11.8847 2.4216 11.813 1.6803V1.37598H11.1155C11.2911 2.31817 11.8899 3.12312 12.7209 3.611ZM5.46456 12.0307C5.18252 11.6828 5.03012 11.2572 5.0308 10.8195C5.0308 9.71481 5.98274 8.81907 7.15717 8.81907C7.37605 8.81902 7.59361 8.85055 7.8022 8.91282V6.49386C7.55844 6.46243 7.31242 6.44909 7.06651 6.45398V8.33678C6.85776 8.27451 6.6401 8.24289 6.42117 8.24308C5.24673 8.24308 4.29485 9.13872 4.29485 10.2436C4.29485 11.0248 4.77066 11.7012 5.46456 12.0307Z" fill="black"/>
<path d="M11.0769 5.42199C12.0649 6.08625 13.2747 6.47711 14.5815 6.47711V4.61467C13.8521 4.46848 13.2063 4.10984 12.7208 3.611C11.8897 3.12307 11.291 2.31812 11.1154 1.37598H9.28334V10.8264C9.2792 11.9281 8.32889 12.8202 7.15697 12.8202C6.46638 12.8202 5.85286 12.5105 5.4643 12.0307C4.77045 11.7012 4.29464 11.0248 4.29464 10.2437C4.29464 9.13887 5.24653 8.24313 6.42096 8.24313C6.64598 8.24313 6.86286 8.2761 7.0663 8.33683V6.45403C4.54423 6.50306 2.51587 8.4419 2.51587 10.8264C2.51587 12.0167 3.02098 13.0958 3.84077 13.8843C4.58035 14.3515 5.47065 14.624 6.42852 14.624C8.99575 14.624 11.0769 12.6659 11.0769 10.2505V5.42199H11.0769Z" fill="black"/>
</g>
<defs>
<clipPath id="clip0_67_339">
<rect width="16" height="15" fill="white" transform="translate(0.5 0.5)"/>
</clipPath>
</defs>
</svg>
