<svg width="21" height="20" viewBox="0 0 21 20" fill="none" xmlns="http://www.w3.org/2000/svg">
<path d="M12.1667 10L9.25 11.6667V8.33333L12.1667 10Z" fill="#1E1E1E" stroke="#1E1E1E" stroke-width="1.25" stroke-linecap="round" stroke-linejoin="round"/>
<path d="M2.16675 10.5892V9.41C2.16675 6.9975 2.16675 5.79083 2.92091 5.015C3.67591 4.23833 4.86425 4.205 7.24008 4.1375C8.36508 4.10583 9.51508 4.08333 10.5001 4.08333C11.4842 4.08333 12.6342 4.10583 13.7601 4.1375C16.1359 4.205 17.3242 4.23833 18.0784 5.015C18.8334 5.79083 18.8334 6.99833 18.8334 9.41V10.5892C18.8334 13.0025 18.8334 14.2083 18.0792 14.985C17.3242 15.7608 16.1367 15.795 13.7601 15.8617C12.6351 15.8942 11.4851 15.9167 10.5001 15.9167C9.41321 15.9134 8.32644 15.8951 7.24008 15.8617C4.86425 15.795 3.67591 15.7617 2.92091 14.985C2.16675 14.2083 2.16675 13.0017 2.16675 10.59V10.5892Z" stroke="#1E1E1E" stroke-width="1.25"/>
<path d="M5.11002 4.33917C7.4196 4.22417 9.21585 4.16667 10.4992 4.16667C11.7825 4.16667 13.5796 4.22417 15.8904 4.33958C16.4951 4.36976 17.0683 4.61836 17.5036 5.03922C17.9388 5.46007 18.2066 6.02458 18.2571 6.62792C18.3629 7.89208 18.4159 9.00542 18.4159 9.96833C18.4159 10.9429 18.3617 12.0717 18.2534 13.355C18.2031 13.9514 17.9405 14.51 17.5133 14.9292C17.0861 15.3484 16.5227 15.6005 15.9254 15.6396C13.95 15.7687 12.1413 15.8333 10.4992 15.8333C8.85752 15.8333 7.04919 15.7687 5.07502 15.6396C4.47796 15.6005 3.91471 15.3487 3.48756 14.9297C3.06041 14.5107 2.79768 13.9524 2.7471 13.3563C2.63752 12.0633 2.58252 10.9338 2.58252 9.96833C2.58252 9.01417 2.63627 7.90042 2.74294 6.62667C2.79364 6.02348 3.06146 5.45917 3.49671 5.03849C3.93195 4.6178 4.50504 4.36932 5.1096 4.33917H5.11002Z" stroke="#1E1E1E" stroke-width="1.66667" stroke-linejoin="round"/>
<path d="M9.25 8.17083V11.8358C9.24997 11.9004 9.26744 11.9637 9.30055 12.0191C9.33365 12.0745 9.38115 12.1199 9.438 12.1505C9.49485 12.1811 9.55892 12.1956 9.6234 12.1927C9.68787 12.1897 9.75034 12.1694 9.80417 12.1338L12.5529 10.3171C12.602 10.2847 12.6424 10.2407 12.6704 10.1889C12.6984 10.1372 12.7132 10.0793 12.7134 10.0205C12.7137 9.96162 12.6994 9.90363 12.6718 9.85165C12.6443 9.79966 12.6043 9.7553 12.5554 9.7225L9.80625 7.87417C9.75252 7.83806 9.68999 7.81724 9.62534 7.81393C9.56069 7.81062 9.49636 7.82495 9.43923 7.85538C9.38209 7.8858 9.3343 7.93119 9.30097 7.98668C9.26764 8.04218 9.25002 8.10568 9.25 8.17042V8.17083Z" stroke="#1E1E1E" stroke-width="1.42875" stroke-linejoin="round"/>
</svg>
