<svg width="58" height="47" viewBox="0 0 58 47" fill="none" xmlns="http://www.w3.org/2000/svg">
<path d="M5.86719 15.3594L7.13477 45.2129H4.46484L5.79102 14.1299L5.80273 13.8418L5.86719 15.3594ZM44.6172 22.127C45.8251 23.9144 46.7354 25.9203 47.2578 28.0674C46.9762 28.0537 46.6903 28.0449 46.4004 28.0449C39.2877 28.0449 32.9716 31.426 29.001 36.6416C27.2109 34.2846 24.9464 32.3093 22.3398 30.8477C19.065 29.0114 15.3647 28.0457 11.6006 28.0449H11.5996C11.3094 28.0449 11.0232 28.0537 10.7412 28.0674C11.2636 25.9204 12.174 23.9143 13.3818 22.127L28.4492 28.0791L29 28.2969L29.5508 28.0791L44.6172 22.127ZM53.9141 12.377L29 22.21L7.91602 13.9004L5.83496 13.0801L5.83594 13.0615L4.84082 12.6699L4.09082 12.375L29 2.54492L53.9141 12.377ZM29 8.0166C28.0262 8.0166 27.0654 8.20509 26.292 8.58398C25.6529 8.89707 24.725 9.57013 24.6113 10.7119L24.5996 10.9473L24.6113 11.1816C24.7248 12.3236 25.6529 12.9964 26.292 13.3096C27.0655 13.6885 28.0262 13.8779 29 13.8779C29.9738 13.8779 30.9345 13.6885 31.708 13.3096C32.3897 12.9756 33.4002 12.2324 33.4004 10.9473C33.4004 9.66191 32.3897 8.91797 31.708 8.58398C30.9346 8.20509 29.9738 8.0166 29 8.0166Z" stroke="#001833" stroke-width="3"/>
</svg>
