<svg width="29" height="25" viewBox="0 0 29 25" fill="none" xmlns="http://www.w3.org/2000/svg">
<path d="M28.6571 2.43649C24.6585 5.98723 19.8602 11.9851 14.2622 20.4301L11.5032 24.7246C9.19997 21.8456 5.48928 17.847 0.371094 12.7288L2.93819 10.1618L9.79976 16.1596C12.1989 13.7605 14.4301 11.5853 16.4934 9.63394C18.5567 7.68263 20.2041 6.18716 21.4356 5.14753L24.5785 2.48447C25.4422 1.74873 26.058 1.2769 26.4259 1.06897L26.9297 0.733089C26.9937 0.733089 27.0817 0.749084 27.1936 0.781073C27.3056 0.813061 27.5135 0.965008 27.8174 1.23691C28.1213 1.50882 28.4012 1.90867 28.6571 2.43649Z" fill="white"/>
</svg>
