<svg width="25" height="25" viewBox="0 0 25 25" fill="none" xmlns="http://www.w3.org/2000/svg">
<path d="M23.3725 23.0981H2.82847C2.66847 23.0981 2.54047 23.0461 2.44447 22.9421C2.34847 22.8381 2.30047 22.7141 2.30047 22.5701V1.97812C2.30047 1.78612 2.23647 1.63012 2.10847 1.51012C1.98047 1.39012 1.82047 1.33012 1.62847 1.33012C1.43647 1.33012 1.28047 1.39012 1.16047 1.51012C1.04047 1.63012 0.980469 1.78612 0.980469 1.97812V22.5221C0.980469 23.0181 1.16447 23.4501 1.53247 23.8181C1.90047 24.1861 2.33247 24.3701 2.82847 24.3701H23.3725C23.5645 24.3701 23.7245 24.3021 23.8525 24.1661C23.9805 24.0301 24.0445 23.8741 24.0445 23.6981C24.0445 23.5221 23.9805 23.3781 23.8525 23.2661C23.7245 23.1541 23.5645 23.0981 23.3725 23.0981ZM22.8925 9.20212H18.4285C18.2365 9.20212 18.0765 9.27012 17.9485 9.40612C17.8205 9.54212 17.7565 9.70612 17.7565 9.89812C17.7565 10.0901 17.8205 10.2501 17.9485 10.3781C18.0765 10.5061 18.2365 10.5701 18.4285 10.5701H21.7645L19.1005 12.7781H13.9165C13.8365 12.7781 13.7445 12.8061 13.6405 12.8621C13.5365 12.9181 13.4605 12.9781 13.4125 13.0421L10.5805 16.7381H6.02047C5.82847 16.7381 5.66847 16.8061 5.54047 16.9421C5.41247 17.0781 5.34847 17.2421 5.34847 17.4341C5.34847 17.6261 5.41247 17.7861 5.54047 17.9141C5.66847 18.0421 5.82847 18.1061 6.02047 18.1061H10.8925C10.9885 18.1061 11.0845 18.0821 11.1805 18.0341C11.2765 17.9861 11.3565 17.9221 11.4205 17.8421L14.2285 14.1221H19.3165C19.5085 14.1221 19.6525 14.0741 19.7485 13.9781L22.7005 11.5301V14.9141C22.7005 15.1061 22.7685 15.2661 22.9045 15.3941C23.0405 15.5221 23.1965 15.5861 23.3725 15.5861C23.5485 15.5861 23.7045 15.5221 23.8405 15.3941C23.9765 15.2661 24.0445 15.1061 24.0445 14.9141V10.3781C24.0445 10.0581 23.9325 9.78212 23.7085 9.55012C23.4845 9.31812 23.2125 9.20212 22.8925 9.20212Z" fill="white"/>
</svg>
