<svg width="38" height="39" viewBox="0 0 38 39" fill="none" xmlns="http://www.w3.org/2000/svg">
<path d="M33.8294 28.1451C32.6405 26.9496 31.2513 25.9738 29.7254 25.2625C31.8772 23.5109 33.2499 20.8383 33.2499 17.8411C33.2499 12.5531 28.8609 8.21477 23.598 8.29591C18.4158 8.37704 14.2405 12.6199 14.2405 17.8411C14.2405 20.8383 15.618 23.5109 17.765 25.2625C16.2389 25.9732 14.8496 26.9491 13.661 28.1451C11.0675 30.7557 9.59506 34.2015 9.50006 37.8764C9.49879 37.9273 9.50768 37.978 9.52621 38.0254C9.54474 38.0729 9.57253 38.1161 9.60794 38.1526C9.64336 38.189 9.68568 38.218 9.73241 38.2378C9.77914 38.2576 9.82934 38.2678 9.88006 38.2678H12.54C12.7443 38.2678 12.9153 38.1055 12.92 37.9003C13.0103 35.1322 14.1265 32.5406 16.0883 30.5743C17.0921 29.5603 18.2862 28.7565 19.6013 28.2092C20.9164 27.662 22.3265 27.3823 23.75 27.3863C26.6427 27.3863 29.3644 28.5174 31.4117 30.5743C33.3687 32.5406 34.4849 35.1322 34.5799 37.9003C34.5847 38.1055 34.7556 38.2678 34.9599 38.2678H37.6199C37.6706 38.2678 37.7208 38.2576 37.7675 38.2378C37.8143 38.218 37.8566 38.189 37.892 38.1526C37.9274 38.1161 37.9552 38.0729 37.9737 38.0254C37.9923 37.978 38.0011 37.9273 37.9999 37.8764C37.9049 34.2015 36.4324 30.7557 33.8294 28.1451ZM23.75 23.95C22.1255 23.95 20.596 23.3152 19.4512 22.1603C18.8768 21.5876 18.423 20.9045 18.1169 20.1518C17.8109 19.399 17.6589 18.5921 17.67 17.779C17.6843 16.2136 18.3065 14.7007 19.3942 13.5792C20.5342 12.4051 22.059 11.7513 23.6882 11.7322C25.2985 11.7179 26.8612 12.3478 28.0107 13.4789C29.1887 14.6387 29.8347 16.1898 29.8347 17.8411C29.8347 19.4733 29.2029 21.0053 28.0534 22.1603C27.4895 22.7296 26.8188 23.181 26.0801 23.4882C25.3414 23.7954 24.5494 23.9523 23.75 23.95ZM11.8513 19.101C11.8085 18.6858 11.7848 18.2658 11.7848 17.8411C11.7848 17.0822 11.856 16.3425 11.989 15.6218C12.0223 15.45 11.932 15.2734 11.7753 15.2018C11.1293 14.9107 10.5356 14.5098 10.0226 14.0039C9.41807 13.415 8.9424 12.706 8.6259 11.922C8.30939 11.1381 8.159 10.2965 8.18432 9.45087C8.22707 7.91887 8.83981 6.46323 9.90856 5.36554C11.0818 4.15807 12.6588 3.49946 14.3355 3.51855C15.8508 3.53287 17.3138 4.11989 18.4205 5.16032C18.7957 5.51349 19.1187 5.90484 19.3895 6.32483C19.4845 6.47278 19.6697 6.53482 19.8312 6.47755C20.6672 6.18642 21.5507 5.9812 22.458 5.88575C22.724 5.85712 22.876 5.57076 22.7572 5.33213C21.2135 2.26336 18.0595 0.144328 14.4115 0.0870573C9.14381 0.00592334 4.75484 4.34421 4.75484 9.62746C4.75484 12.6246 6.12758 15.2973 8.27932 17.0488C6.76883 17.7504 5.37709 18.7192 4.17059 19.9315C1.56761 22.5421 0.0951182 25.9879 0.000118778 29.6676C-0.00114901 29.7185 0.00774306 29.7692 0.0262713 29.8166C0.0447995 29.864 0.0725889 29.9073 0.108002 29.9437C0.143415 29.9802 0.185736 30.0092 0.232469 30.029C0.279203 30.0487 0.329405 30.0589 0.380116 30.0589H3.04485C3.2491 30.0589 3.4201 29.8966 3.42485 29.6914C3.5151 26.9233 4.63134 24.3318 6.59308 22.3655C7.98957 20.9624 9.69956 19.9887 11.5663 19.5163C11.7515 19.4685 11.875 19.292 11.8513 19.101Z" fill="#001833"/>
</svg>
