<svg width="25" height="25" viewBox="0 0 25 25" fill="none" xmlns="http://www.w3.org/2000/svg">
<path d="M24.0542 17.3078C24.0542 16.6518 23.8942 16.0478 23.5742 15.4958C23.2542 14.9438 22.8222 14.5078 22.2782 14.1878C21.7342 13.8678 21.1302 13.7078 20.4662 13.7078C19.8022 13.7078 19.1942 13.8678 18.6422 14.1878C18.0902 14.5078 17.6502 14.9438 17.3222 15.4958C16.9942 16.0478 16.8302 16.6518 16.8302 17.3078C16.8302 17.8998 17.1022 18.7398 17.6462 19.8278C18.0302 20.5798 18.5422 21.4438 19.1822 22.4198H7.30223C6.99823 22.4198 6.70623 22.3598 6.42623 22.2398C6.14623 22.1198 5.90223 21.9558 5.69423 21.7478C5.40623 21.4598 5.20623 21.1278 5.09423 20.7518C4.98223 20.3758 4.96623 19.9878 5.04623 19.5878C5.14223 19.0758 5.41423 18.6478 5.86223 18.3038C6.31023 17.9598 6.83023 17.7878 7.42223 17.7878H11.2382C12.2462 17.7878 13.0942 17.4438 13.7822 16.7558C14.2782 16.2598 14.6022 15.6718 14.7542 14.9918C14.9062 14.3118 14.8702 13.6358 14.6462 12.9638C14.4062 12.2598 13.9662 11.6838 13.3262 11.2358C12.6862 10.7878 11.9662 10.5638 11.1662 10.5638H5.83823C6.46223 9.58782 6.98223 8.68382 7.39823 7.85182C7.95823 6.71582 8.23823 5.85982 8.23823 5.28382C8.23823 4.61182 8.07823 4.00382 7.75823 3.45982C7.43823 2.91582 7.00223 2.48382 6.45023 2.16382C5.89823 1.84382 5.29423 1.68382 4.63823 1.68382C3.98223 1.68382 3.37423 1.84382 2.81423 2.16382C2.25423 2.48382 1.81023 2.91982 1.48223 3.47182C1.15423 4.02382 0.990234 4.62782 0.990234 5.28382C0.990234 6.00382 1.43823 7.17182 2.33423 8.78782C2.83023 9.68382 3.40623 10.6118 4.06223 11.5718L4.25423 11.7878H4.27823C4.29423 11.8038 4.30223 11.8198 4.30223 11.8358L4.35023 11.8598C4.38223 11.8758 4.40623 11.8838 4.42223 11.8838H4.59023H11.1902C11.7022 11.8838 12.1702 12.0198 12.5942 12.2918C13.0182 12.5638 13.3062 12.9278 13.4582 13.3838C13.6102 13.8398 13.6382 14.2798 13.5422 14.7038C13.4462 15.1278 13.2302 15.4998 12.8942 15.8198C12.6862 16.0278 12.4382 16.1918 12.1502 16.3118C11.8622 16.4318 11.5662 16.4918 11.2622 16.4918H7.44623C6.55023 16.4918 5.76623 16.7598 5.09423 17.2958C4.42223 17.8318 3.99823 18.5238 3.82223 19.3718C3.69423 19.9798 3.71423 20.5758 3.88223 21.1598C4.05023 21.7438 4.35023 22.2518 4.78223 22.6838C5.11823 23.0198 5.50623 23.2758 5.94623 23.4518C6.38623 23.6278 6.84623 23.7158 7.32623 23.7158H20.6222L20.7902 23.6918C20.7902 23.6758 20.7942 23.6638 20.8022 23.6558C20.8102 23.6478 20.8222 23.6358 20.8382 23.6198H20.8622L20.9102 23.5718C20.9422 23.5558 20.9662 23.5318 20.9822 23.4998L21.0302 23.4518L21.2942 23.0438C22.0142 21.9398 22.5742 21.0278 22.9742 20.3078C23.6942 18.9798 24.0542 17.9798 24.0542 17.3078ZM4.59023 2.97982C5.23023 2.97982 5.77423 3.20382 6.22223 3.65182C6.67023 4.09982 6.89423 4.64382 6.89423 5.28382C6.89423 5.68382 6.64623 6.37982 6.15023 7.37182C5.73423 8.17182 5.21423 9.05982 4.59023 10.0358C3.03823 7.53982 2.26223 5.95582 2.26223 5.28382C2.29423 4.62782 2.53023 4.07982 2.97023 3.63982C3.41023 3.19982 3.95023 2.97982 4.59023 2.97982ZM20.4542 15.0518C20.8702 15.0518 21.2542 15.1558 21.6062 15.3638C21.9582 15.5718 22.2382 15.8518 22.4462 16.2038C22.6542 16.5558 22.7582 16.9358 22.7582 17.3438C22.7582 17.7518 22.5102 18.4358 22.0142 19.3958C21.5982 20.1798 21.0782 21.0358 20.4542 21.9638C19.8302 21.0038 19.3182 20.1478 18.9182 19.3958C18.4222 18.4358 18.1702 17.7518 18.1622 17.3438C18.1542 16.9358 18.2502 16.5558 18.4502 16.2038C18.6502 15.8518 18.9262 15.5718 19.2782 15.3638C19.6302 15.1558 20.0222 15.0518 20.4542 15.0518ZM21.3902 17.0438C21.3902 16.7718 21.2942 16.5358 21.1022 16.3358C20.9102 16.1358 20.6782 16.0358 20.4062 16.0358C20.1342 16.0358 19.9062 16.1318 19.7222 16.3238C19.5382 16.5158 19.4462 16.7518 19.4462 17.0318C19.4462 17.3118 19.5422 17.5518 19.7342 17.7518C19.9262 17.9518 20.1582 18.0478 20.4302 18.0398C20.7022 18.0318 20.9302 17.9318 21.1142 17.7398C21.2982 17.5478 21.3902 17.3158 21.3902 17.0438ZM5.57423 4.97182C5.57423 4.69982 5.47823 4.46382 5.28623 4.26382C5.09423 4.06382 4.86623 3.96382 4.60223 3.96382C4.33823 3.96382 4.11023 4.06382 3.91823 4.26382C3.72623 4.46382 3.63023 4.69982 3.63023 4.97182C3.63023 5.24382 3.72223 5.47582 3.90623 5.66782C4.09023 5.85982 4.31823 5.95582 4.59023 5.95582C4.86223 5.95582 5.09423 5.85982 5.28623 5.66782C5.47823 5.47582 5.57423 5.24382 5.57423 4.97182Z" fill="white"/>
</svg>
