<svg width="141" height="140" viewBox="0 0 141 140" fill="none" xmlns="http://www.w3.org/2000/svg">
<path d="M139.456 69.0818L117.149 15.6906L95.6251 24.6836C95.8952 22.1451 95.8952 18.5532 94.5179 15.9606C91.4392 10.2083 84.2555 8.02083 78.5032 11.0995C72.7509 14.1782 70.5634 21.3619 73.6421 27.1142C74.7224 29.1397 76.3427 30.787 78.3412 31.8943L55.3319 41.4815C54.8188 39.8611 54.0356 38.3218 53.0364 36.9444C53.3335 36.7824 53.5765 36.5934 53.8196 36.3503C54.3867 35.7832 54.7378 35.027 54.7378 34.2168L54.6298 25.3048H56.4662C56.8983 25.3048 57.3034 25.1157 57.6004 24.8187C57.9245 24.5216 58.0866 24.0895 58.0866 23.6574L57.7625 0L54.5217 0.0540123L54.8188 22.064L11.5279 22.3881L11.2308 0L7.9901 0.0540123L8.28717 24.0625C8.31417 24.9537 9.01633 25.6289 9.90754 25.6559H11.798C11.798 25.7369 11.906 34.5679 11.906 34.5679C11.933 35.5401 12.4191 36.4313 13.2023 36.9985L12.014 38.8889C11.5549 39.6181 10.9338 41.4275 10.9338 41.4275H10.9068L6.18069 59.0625L7.42297 62.8974L5.66757 63.6805C4.0472 64.4097 2.7509 65.733 2.12976 67.4074C1.50862 69.0818 1.56263 70.9182 2.2918 72.5386L26.3003 126.173L48.7964 116.1C49.6066 115.748 50.1737 114.992 50.2548 114.101C50.3358 113.21 49.9307 112.346 49.2015 111.86C46.3119 109.834 44.3134 107.647 43.7193 105.864C42.2069 101.381 44.6105 96.493 49.1205 94.9807C53.6035 93.4684 58.4916 95.8719 60.004 100.382C60.7332 102.515 60.5711 104.865 59.5719 106.89C59.1398 107.755 59.3018 108.781 59.977 109.456C60.6251 110.158 61.6514 110.374 62.5156 109.969L81.2038 101.597C82.095 101.219 82.8512 100.571 83.3913 99.7608L86.227 98.5995C86.5511 101.273 87.5503 103.812 89.1436 105.999C88.8466 106.161 88.6035 106.377 88.3605 106.62C87.7663 107.187 87.4423 107.971 87.4423 108.781L87.5773 117.666H85.7409C85.3088 117.666 84.9037 117.855 84.6066 118.152C84.2825 118.449 84.1205 118.881 84.1475 119.313L84.4446 139.703H87.6853L87.3882 120.934L130.679 120.583L130.976 139.73H134.217L133.92 118.962C133.893 118.071 133.191 117.369 132.3 117.342H130.409C130.409 117.288 130.436 117.207 130.436 117.153L130.301 108.457C130.301 107.485 129.815 106.566 129.005 106.026C129.626 105.027 130.112 104.271 130.193 104.109C130.652 103.407 131.003 102.623 131.219 101.786L131.273 101.597H131.3L136.026 83.9352L134.298 78.4799L135.864 77.8318C139.267 76.4275 140.887 72.5656 139.483 69.1628C139.483 69.1358 139.456 69.1088 139.456 69.0818ZM26.3273 54.4444L26.0572 54.9035C24.2208 58.1443 20.899 59.5756 20.872 59.5756L19.6838 60.0617C19.6838 60.0617 21.5472 71.3233 22.0603 74.591C22.3574 76.5355 22.0063 78.5339 21.0341 80.2353C20.3319 81.2346 19.1977 81.8287 17.9824 81.8287C17.1452 81.8017 16.7941 81.3696 16.6591 81.1265L11.3929 64.6798L10.3936 61.5741L9.55646 58.9815L14.1205 41.9946C14.2555 41.5085 14.4716 41.0494 14.7416 40.6173C14.7416 40.6173 15.5788 39.267 16.5241 37.8086L49.3636 37.5386C50.7679 39.0239 51.7941 40.8333 52.3612 42.8048L26.3273 54.4444ZM50.9029 34.3248H50.8489V34.2708L15.8219 34.5409C15.5788 34.5679 15.3628 34.4869 15.1737 34.3518V34.0278L15.0657 25.8719C15.2548 25.7639 15.4708 25.6829 15.6869 25.6829L50.7679 25.4128C51.0109 25.3858 51.227 25.4668 51.416 25.6019L51.5511 34.1358C51.362 34.2438 51.119 34.3248 50.9029 34.3248ZM79.8805 98.6265L63.3257 106.053C64.9191 99.7068 61.0842 93.2793 54.7378 91.686C48.3913 90.0926 41.9639 93.9275 40.3705 100.274C39.8034 102.461 39.9114 104.784 40.6136 106.917C41.5318 109.591 43.9893 111.968 46.2308 113.696L27.8936 121.906L5.20846 71.2153C4.83038 70.3781 4.80337 69.4329 5.15445 68.5687C5.47853 67.7045 6.12667 67.0293 6.96386 66.6512L8.39519 66.0031L13.6884 82.5039C14.4986 84.0432 16.0649 85.0424 17.8203 85.0694C17.8203 85.0694 22.0333 85.1505 23.7617 81.9367V81.8827C25.112 79.5062 25.6251 76.7515 25.193 74.0509C24.7879 71.4583 23.6807 64.6798 23.2216 61.9522C25.3821 60.7639 27.2185 59.0355 28.5688 56.983L55.9801 44.6952C55.9801 44.6952 56.7362 44.2631 57.3304 44.3981C57.6815 44.5332 58.0055 44.9383 58.1676 45.2893L66.6475 64.6798C66.9986 65.571 67.8898 66.1111 68.835 66.0571C69.7802 66.0031 70.5904 65.3549 70.8875 64.4637C71.6166 62.0062 73.399 60.0347 75.7756 59.0625C79.9886 57.1721 84.9577 59.0355 86.8481 63.2485C88.6035 67.1373 87.1722 71.7014 83.4994 73.8889C81.1498 75.2122 77.0449 74.8881 75.3975 74.6991C74.5333 74.591 73.6691 74.9691 73.129 75.6713C73.129 75.6983 72.3458 76.5895 72.8589 78.1288L80.8798 96.0069C81.1768 96.6821 81.0688 97.4923 80.6097 98.0594C80.4477 98.3025 80.1776 98.5185 79.8805 98.6265ZM127.06 108.916L127.195 117.072C127.006 117.207 126.79 117.288 126.547 117.261L91.4662 117.531C91.2231 117.558 91.0071 117.477 90.818 117.342L90.683 108.943L127.06 108.916ZM128.087 100.949C127.952 101.435 127.735 101.894 127.465 102.326V102.38C127.465 102.38 126.655 103.704 125.71 105.162L125.386 105.675H93.1136L92.8435 105.405C90.764 103.191 89.5217 100.301 89.3597 97.2492L112.747 87.5C112.234 88.4182 111.748 89.3904 111.289 90.3626L114.232 91.74C114.827 90.4707 115.475 89.2284 116.15 88.0401C116.825 86.8518 117.743 85.8256 118.796 84.9614C119.58 84.3133 120.417 83.8001 121.335 83.368L122.523 82.8819L122.334 81.6126C122.307 81.5856 122.226 80.9915 122.064 80.1003C121.578 77.1836 120.552 70.8642 120.147 68.3796C119.85 66.4352 120.201 64.4367 121.173 62.7353C121.875 61.7361 123.009 61.115 124.225 61.115C125.062 61.142 125.413 61.5741 125.548 61.8441L130.301 76.6435L131.3 79.7492L132.651 83.9892L128.087 100.949ZM136.485 72.9707C136.134 73.8079 135.459 74.483 134.622 74.8341L133.299 75.4012L128.492 60.4398C127.681 58.9005 126.115 57.9282 124.387 57.8742C120.228 57.9822 118.418 61.0339 118.418 61.0339C117.068 63.4105 116.555 66.1651 116.987 68.8657C117.392 71.4853 118.499 78.2369 118.958 80.9645C118.337 81.3156 117.743 81.7207 117.176 82.1528L84.2285 95.9259C84.1475 95.4938 76.6398 78.588 76.6398 78.588C79.3134 78.777 82.3921 78.642 84.6876 77.4267L85.7139 76.8055C86.9562 75.9684 88.0364 74.9151 88.8736 73.6728L89.2247 73.1327C89.8458 72.1065 90.3049 70.9992 90.602 69.838C90.629 69.7839 90.629 69.7299 90.629 69.6759H90.656C90.9531 68.6227 91.0881 67.5424 91.0881 66.4352C91.0881 65.2469 90.899 64.0316 90.548 62.8974C88.6035 56.6589 81.96 53.2022 75.7216 55.1466C74.232 55.6176 72.85 56.3776 71.6544 57.3832C70.4588 58.3887 69.4732 59.6201 68.754 61.0069L66.8365 56.713C66.2154 55.1736 62.0835 46.0995 61.1653 43.993C60.9492 43.588 60.7061 43.1829 60.4091 42.8318L81.771 34.0278C82.6622 33.6497 83.2023 32.7585 83.1483 31.8133C83.1213 30.8681 82.4731 30.0579 81.5819 29.7878C77.0449 28.4105 74.4793 23.6304 75.8566 19.0664C75.9916 18.6343 76.1537 18.2292 76.3427 17.8241C77.396 15.6096 79.3404 13.9352 81.7169 13.287C85.6058 12.1798 89.7378 13.9082 91.6552 17.473C92.9245 19.8495 92.4924 23.9275 92.2494 25.5748C92.1413 26.466 92.4924 27.3302 93.1946 27.8704C93.8967 28.4105 94.8149 28.5455 95.6251 28.1944L115.394 19.9306L136.458 70.3241C136.837 71.1613 136.837 72.1335 136.485 72.9707Z" fill="#FF2424"/>
<path d="M35.0826 128.39L37.9623 126.903L41.7026 134.151L38.8227 135.637L35.0826 128.39ZM11.7061 134.281L15.4464 127.034L18.3263 128.52L14.586 135.767L11.7061 134.281ZM24.921 139.829L25.1203 131.676L28.36 131.755L28.1606 139.908L24.921 139.829ZM103.599 6.06023L106.479 4.57408L110.219 11.8215L107.34 13.3076L103.599 6.06023ZM126.985 11.9303L130.725 4.68292L133.604 6.16934L129.864 13.4164L126.985 11.9303ZM116.762 8.50402L116.962 0.350586L120.201 0.429714L120.002 8.58288L116.762 8.50402Z" fill="#FF2424"/>
</svg>
