<svg width="141" height="119" viewBox="0 0 141 119" fill="none" xmlns="http://www.w3.org/2000/svg">
<path d="M70.1667 69.0219C70.4881 69.0218 70.8055 68.9508 71.0964 68.8141L138.909 36.9094C139.285 36.7328 139.602 36.4528 139.825 36.1022C140.048 35.7517 140.166 35.345 140.166 34.9297C140.166 34.5145 140.048 34.1078 139.825 33.7572C139.602 33.4067 139.285 33.1267 138.909 32.95L71.0964 1.03442C70.8055 0.897835 70.488 0.827026 70.1667 0.827026C69.8453 0.827026 69.5279 0.897835 69.237 1.03442L1.42448 32.95C1.04868 33.1267 0.730927 33.4067 0.508347 33.7572C0.285767 34.1078 0.167572 34.5145 0.167572 34.9297C0.167572 35.345 0.285767 35.7517 0.508347 36.1022C0.730927 36.4528 1.04868 36.7328 1.42448 36.9094L69.237 68.8141C69.5279 68.9508 69.8453 69.0218 70.1667 69.0219ZM132.839 34.9297L70.1667 64.461L7.4948 34.9297L70.1667 5.43129L132.839 34.9297Z" fill="#FF2424"/>
<path d="M113.917 72.5C114.497 72.5 115.053 72.2695 115.464 71.8593C115.874 71.4491 116.104 70.8927 116.104 70.3125V47.3438C116.104 46.7636 115.874 46.2072 115.464 45.797C115.053 45.3867 114.497 45.1562 113.917 45.1562C113.337 45.1562 112.78 45.3867 112.37 45.797C111.96 46.2072 111.729 46.7636 111.729 47.3438V70.3125C111.729 70.8927 111.96 71.4491 112.37 71.8593C112.78 72.2695 113.337 72.5 113.917 72.5ZM26.4167 72.5C26.9969 72.5 27.5533 72.2695 27.9635 71.8593C28.3738 71.4491 28.6042 70.8927 28.6042 70.3125V47.3438C28.6042 46.7636 28.3738 46.2072 27.9635 45.797C27.5533 45.3867 26.9969 45.1562 26.4167 45.1562C25.8366 45.1562 25.2802 45.3867 24.8699 45.797C24.4597 46.2072 24.2292 46.7636 24.2292 47.3438V70.3125C24.2292 70.8927 24.4597 71.4491 24.8699 71.8593C25.2802 72.2695 25.8366 72.5 26.4167 72.5Z" fill="#FF2424"/>
<path d="M70.1667 94.9547C94.9074 94.9547 116.104 81.4031 116.104 70.3125C116.104 69.7323 115.874 69.1759 115.464 68.7657C115.053 68.3555 114.497 68.125 113.917 68.125C113.337 68.125 112.78 68.3555 112.37 68.7657C111.96 69.1759 111.729 69.7323 111.729 70.3125C111.729 77.2469 94.2292 90.5797 70.1667 90.5797C46.1042 90.5797 28.6042 77.2469 28.6042 70.3125C28.6042 69.7323 28.3738 69.1759 27.9635 68.7657C27.5533 68.3555 26.9969 68.125 26.4167 68.125C25.8366 68.125 25.2802 68.3555 24.8699 68.7657C24.4597 69.1759 24.2292 69.7323 24.2292 70.3125C24.2292 81.4031 45.4261 94.9547 70.1667 94.9547Z" fill="#FF2424"/>
<path d="M37.3542 95.4687C37.9343 95.4687 38.4907 95.2383 38.901 94.828C39.3112 94.4178 39.5417 93.8614 39.5417 93.2812V51.9812L71.1401 36.1766C71.4063 36.0543 71.6453 35.8798 71.8427 35.6634C72.0402 35.447 72.1922 35.1932 72.2898 34.917C72.3873 34.6408 72.4283 34.3477 72.4105 34.0554C72.3926 33.763 72.3162 33.4771 72.1858 33.2148C72.0554 32.9525 71.8736 32.7191 71.6512 32.5283C71.4289 32.3376 71.1705 32.1935 70.8914 32.1045C70.6123 32.0156 70.3182 31.9836 70.0265 32.0104C69.7347 32.0373 69.4514 32.1225 69.1932 32.2609L36.3807 48.6672C36.0163 48.8483 35.7096 49.1275 35.4951 49.4733C35.2806 49.8192 35.1669 50.218 35.1667 50.625V93.2812C35.1667 93.8614 35.3971 94.4178 35.8074 94.828C36.2176 95.2383 36.774 95.4687 37.3542 95.4687Z" fill="#FF2424"/>
<path d="M37.3542 105.313C38.6522 105.313 39.921 104.928 41.0002 104.207C42.0794 103.485 42.9205 102.46 43.4172 101.261C43.9139 100.062 44.0439 98.7427 43.7906 97.4697C43.5374 96.1967 42.9124 95.0274 41.9946 94.1096C41.0768 93.1918 39.9075 92.5668 38.6345 92.3136C37.3615 92.0604 36.042 92.1903 34.8429 92.687C33.6438 93.1837 32.6188 94.0249 31.8977 95.1041C31.1766 96.1833 30.7917 97.4521 30.7917 98.75C30.7917 100.49 31.4832 102.16 32.7139 103.39C33.9446 104.621 35.6138 105.313 37.3542 105.313ZM37.3542 96.5625C37.7869 96.5625 38.2098 96.6908 38.5696 96.9312C38.9293 97.1715 39.2097 97.5132 39.3752 97.9129C39.5408 98.3126 39.5841 98.7524 39.4997 99.1768C39.4153 99.6011 39.207 99.9909 38.901 100.297C38.5951 100.603 38.2053 100.811 37.781 100.895C37.3567 100.98 36.9168 100.937 36.5171 100.771C36.1174 100.605 35.7758 100.325 35.5354 99.9653C35.295 99.6056 35.1667 99.1826 35.1667 98.75C35.1667 98.1698 35.3972 97.6134 35.8074 97.2032C36.2177 96.793 36.7741 96.5625 37.3542 96.5625Z" fill="#FF2424"/>
<path d="M34.0729 118.438H40.6354C40.939 118.439 41.2395 118.377 41.5178 118.255C41.7961 118.134 42.0461 117.956 42.2518 117.733C42.4576 117.509 42.6146 117.246 42.7129 116.958C42.8113 116.671 42.8487 116.367 42.8229 116.064L41.7291 102.939C41.7074 102.359 41.4561 101.811 41.0304 101.416C40.6048 101.022 40.0398 100.812 39.4596 100.834C38.8795 100.855 38.3317 101.107 37.9368 101.532C37.542 101.958 37.3324 102.523 37.3541 103.103C37.3759 102.523 37.1663 101.958 36.7714 101.532C36.3766 101.107 35.8288 100.855 35.2487 100.834C34.6685 100.812 34.1035 101.022 33.6778 101.416C33.2522 101.811 33.0009 102.359 32.9791 102.939L31.8854 116.064C31.8596 116.367 31.897 116.671 31.9953 116.958C32.0937 117.246 32.2507 117.509 32.4565 117.733C32.6622 117.956 32.9122 118.134 33.1905 118.255C33.4688 118.377 33.7693 118.439 34.0729 118.438ZM38.262 114.063H36.4463L37.3541 103.311C37.3596 103.256 37.3596 103.202 37.3541 103.147C37.3487 103.202 37.3487 103.256 37.3541 103.311L38.262 114.063Z" fill="#FF2424"/>
</svg>
