<svg width="20" height="20" viewBox="0 0 20 20" fill="none" xmlns="http://www.w3.org/2000/svg">
<path d="M14.1667 9.837C14.1667 9.54892 14.1667 9.40492 14.21 9.27658C14.336 8.90358 14.6682 8.75892 15.0009 8.60734C15.375 8.43692 15.562 8.35175 15.7474 8.33675C15.9578 8.31973 16.1685 8.36508 16.3484 8.466C16.5868 8.59975 16.753 8.854 16.9233 9.06075C17.7094 10.0156 18.1024 10.4931 18.2463 11.0196C18.3624 11.4444 18.3624 11.8888 18.2463 12.3136C18.0365 13.0815 17.3738 13.7253 16.8832 14.3211C16.6323 14.6258 16.5068 14.7783 16.3484 14.8672C16.1685 14.9681 15.9578 15.0134 15.7474 14.9964C15.562 14.9814 15.375 14.8963 15.0009 14.7258C14.6682 14.5743 14.336 14.4296 14.21 14.0566C14.1667 13.9283 14.1667 13.7843 14.1667 13.4962V9.837Z" stroke="#FF2424"/>
<path d="M5.83335 9.83706C5.83335 9.47439 5.82317 9.14839 5.52994 8.89339C5.42329 8.80064 5.28189 8.73623 4.99911 8.60739C4.62503 8.43706 4.43799 8.35189 4.25265 8.33689C3.69661 8.29189 3.39745 8.67139 3.0768 9.06089C2.29065 10.0157 1.89757 10.4931 1.75374 11.0196C1.63767 11.4446 1.63767 11.8889 1.75374 12.3137C1.96352 13.0816 2.62629 13.7253 3.11686 14.3212C3.4261 14.6968 3.72149 15.0395 4.25265 14.9966C4.43799 14.9816 4.62503 14.8963 4.99911 14.726C5.28189 14.5971 5.42329 14.5327 5.52994 14.44C5.82317 14.185 5.83335 13.8591 5.83335 13.4963V9.83706Z" stroke="#FF2424"/>
<path d="M16.6666 8.75008V7.50008C16.6666 4.27842 13.6819 1.66675 9.99998 1.66675C6.31808 1.66675 3.33331 4.27842 3.33331 7.50008V8.75008" stroke="#FF2424" stroke-linecap="round" stroke-linejoin="round"/>
<path d="M16.6667 14.5833C16.6667 18.3333 13.3333 18.3333 10 18.3333" stroke="#FF2424" stroke-linecap="round" stroke-linejoin="round"/>
</svg>
