<svg width="20" height="20" viewBox="0 0 20 20" fill="none" xmlns="http://www.w3.org/2000/svg">
<path d="M13.3333 8.33325L15.1245 8.87059C16.2688 9.21392 16.841 9.38559 17.1705 9.82842C17.5 10.2713 17.5 10.8687 17.5 12.0633V18.3333" stroke="#FF2424" stroke-linejoin="round"/>
<path d="M6.66669 7.5H9.16669M6.66669 10.8333H9.16669" stroke="#FF2424" stroke-linecap="round" stroke-linejoin="round"/>
<path d="M9.99998 18.3334V15.8334C9.99998 15.0477 9.99998 14.6549 9.7559 14.4108C9.51181 14.1667 9.11898 14.1667 8.33331 14.1667H7.49998C6.7143 14.1667 6.32147 14.1667 6.07739 14.4108C5.83331 14.6549 5.83331 15.0477 5.83331 15.8334V18.3334" stroke="#FF2424" stroke-linejoin="round"/>
<path d="M1.66669 18.3333H18.3334" stroke="#FF2424" stroke-linecap="round"/>
<path d="M2.5 18.3334V5.59778C2.5 3.50549 2.5 2.45934 3.15932 1.94028C3.81864 1.42123 4.78952 1.70304 6.73127 2.26667L10.8979 3.4761C12.0697 3.81622 12.6556 3.98628 12.9944 4.44979C13.3333 4.91331 13.3333 5.54462 13.3333 6.80722V18.3334" stroke="#FF2424" stroke-linecap="round" stroke-linejoin="round"/>
</svg>
