<svg width="20" height="20" viewBox="0 0 20 20" fill="none" xmlns="http://www.w3.org/2000/svg">
<path d="M9.3525 5V6.65748C9.3525 7.82277 9.3525 8.40542 9.5085 8.96475C9.6645 9.52408 9.97033 10.0377 10.582 11.0649L11.4107 12.4568C12.9693 15.0743 13.7487 16.3831 13.1093 17.3533L13.0994 17.3682C12.4507 18.3333 10.8005 18.3333 7.5 18.3333C4.19948 18.3333 2.54922 18.3333 1.90058 17.3682L1.8907 17.3533C1.25136 16.3831 2.03066 15.0743 3.58923 12.4568L4.41802 11.0649C5.02965 10.0377 5.33546 9.52408 5.4915 8.96475C5.64753 8.40542 5.64753 7.82277 5.64753 6.65748V5" stroke="#FF2424"/>
<path d="M5 5H10" stroke="#FF2424" stroke-linecap="round" stroke-linejoin="round"/>
<path d="M4.58334 11.0668C5.13889 10.5824 6.4454 10.9317 7.50129 11.3868C8.89017 11.9856 10.1389 11.5015 10.4167 11.0668" stroke="#FF2424" stroke-linecap="round"/>
<path d="M9.58333 5.83341C9.58333 7.50008 11.552 9.3435 12.894 9.16675C12.894 10.5475 14.1117 11.6667 15.6137 11.6667C17.1157 11.6667 18.3333 10.5475 18.3333 9.16675C18.3333 7.78604 17.5 6.66675 15.8333 6.66675C15.8333 5.00008 14.5833 3.33341 12.8166 3.33341C12.8166 2.04747 12.0833 1.66675 11.25 1.66675C10.4167 1.66675 10 2.50008 10 2.50008C10 2.50008 7.5 2.50008 7.5 5.00008" stroke="#FF2424" stroke-linecap="round" stroke-linejoin="round"/>
</svg>
