<svg width="120" height="27" viewBox="0 0 120 27" fill="none" xmlns="http://www.w3.org/2000/svg">
<g clip-path="url(#clip0_3_505)">
<rect width="119.431" height="26.4483" fill="white"/>
<path d="M23.2927 8.17067H25.6194V18.2241H23.2927V8.17067ZM18.7256 18.2241H16.3989V8.17067H18.7256V18.2241ZM23.4651 14.1022H18.5533V12.1346H23.4651V14.1022ZM32.5939 18.3965C31.7992 18.3965 31.0619 18.2672 30.3821 18.0087C29.7119 17.7502 29.1278 17.3863 28.6299 16.9172C28.1416 16.448 27.7586 15.8975 27.481 15.2655C27.2129 14.6336 27.0788 13.9442 27.0788 13.1974C27.0788 12.4506 27.2129 11.7612 27.481 11.1293C27.7586 10.4973 28.1464 9.94678 28.6443 9.47762C29.1422 9.00846 29.7262 8.64462 30.3965 8.3861C31.0667 8.12759 31.7944 7.99833 32.5795 7.99833C33.3742 7.99833 34.1019 8.12759 34.7625 8.3861C35.4328 8.64462 36.012 9.00846 36.5003 9.47762C36.9982 9.94678 37.386 10.4973 37.6637 11.1293C37.9413 11.7516 38.0802 12.441 38.0802 13.1974C38.0802 13.9442 37.9413 14.6384 37.6637 15.2799C37.386 15.9118 36.9982 16.4624 36.5003 16.9315C36.012 17.3911 35.4328 17.7502 34.7625 18.0087C34.1019 18.2672 33.379 18.3965 32.5939 18.3965ZM32.5795 16.4145C33.0295 16.4145 33.4412 16.3379 33.8146 16.1847C34.1976 16.0315 34.5327 15.8113 34.82 15.5241C35.1072 15.2368 35.3274 14.8969 35.4806 14.5043C35.6434 14.1118 35.7248 13.6761 35.7248 13.1974C35.7248 12.7187 35.6434 12.283 35.4806 11.8904C35.3274 11.4979 35.1072 11.158 34.82 10.8707C34.5423 10.5835 34.212 10.3633 33.829 10.2101C33.446 10.0569 33.0295 9.98029 32.5795 9.98029C32.1295 9.98029 31.713 10.0569 31.33 10.2101C30.9566 10.3633 30.6263 10.5835 30.339 10.8707C30.0518 11.158 29.8268 11.4979 29.664 11.8904C29.5108 12.283 29.4342 12.7187 29.4342 13.1974C29.4342 13.6666 29.5108 14.1022 29.664 14.5043C29.8268 14.8969 30.047 15.2368 30.3247 15.5241C30.6119 15.8113 30.947 16.0315 31.33 16.1847C31.713 16.3379 32.1295 16.4145 32.5795 16.4145ZM39.5415 18.2241V8.17067H43.8932C44.7932 8.17067 45.5688 8.31908 46.2199 8.6159C46.871 8.90314 47.3736 9.31964 47.7279 9.8654C48.0822 10.4112 48.2593 11.0622 48.2593 11.8186C48.2593 12.5655 48.0822 13.2118 47.7279 13.7575C47.3736 14.2937 46.871 14.7054 46.2199 14.9927C45.5688 15.2799 44.7932 15.4235 43.8932 15.4235H40.8341L41.8682 14.4038V18.2241H39.5415ZM45.9326 18.2241L43.4193 14.5762H45.9039L48.446 18.2241H45.9326ZM41.8682 14.6623L40.8341 13.5708H43.764C44.4821 13.5708 45.0183 13.4176 45.3725 13.1112C45.7268 12.7953 45.9039 12.3644 45.9039 11.8186C45.9039 11.2633 45.7268 10.8324 45.3725 10.5261C45.0183 10.2197 44.4821 10.0665 43.764 10.0665H40.8341L41.8682 8.96059V14.6623ZM54.282 18.3965C52.8554 18.3965 51.74 17.9991 50.9357 17.2044C50.1314 16.4097 49.7293 15.2751 49.7293 13.8006V8.17067H52.0559V13.7144C52.0559 14.6719 52.2522 15.3613 52.6448 15.7826C53.0373 16.2039 53.5879 16.4145 54.2964 16.4145C55.0049 16.4145 55.5555 16.2039 55.948 15.7826C56.3406 15.3613 56.5369 14.6719 56.5369 13.7144V8.17067H58.8348V13.8006C58.8348 15.2751 58.4327 16.4097 57.6284 17.2044C56.8241 17.9991 55.7087 18.3965 54.282 18.3965ZM60.8467 18.2241V8.17067H62.7713L67.0512 15.2655H66.0315L70.2395 8.17067H72.1497L72.1784 18.2241H69.9954L69.981 11.517H70.3832L67.0224 17.1613H65.974L62.5415 11.517H63.0298V18.2241H60.8467ZM72.9551 18.2241L77.4361 8.17067H79.734L84.2293 18.2241H81.7878L78.1111 9.34836H79.0302L75.3392 18.2241H72.9551ZM75.1956 16.0698L75.8131 14.3033H80.9835L81.6154 16.0698H75.1956ZM84.9851 18.2241V8.17067H89.3368C90.2368 8.17067 91.0124 8.31908 91.6635 8.6159C92.3146 8.90314 92.8172 9.31964 93.1715 9.8654C93.5258 10.4112 93.7029 11.0622 93.7029 11.8186C93.7029 12.5655 93.5258 13.2118 93.1715 13.7575C92.8172 14.2937 92.3146 14.7054 91.6635 14.9927C91.0124 15.2799 90.2368 15.4235 89.3368 15.4235H86.2777L87.3118 14.4038V18.2241H84.9851ZM91.3762 18.2241L88.8629 14.5762H91.3475L93.8896 18.2241H91.3762ZM87.3118 14.6623L86.2777 13.5708H89.2076C89.9257 13.5708 90.4619 13.4176 90.8161 13.1112C91.1704 12.7953 91.3475 12.3644 91.3475 11.8186C91.3475 11.2633 91.1704 10.8324 90.8161 10.5261C90.4619 10.2197 89.9257 10.0665 89.2076 10.0665H86.2777L87.3118 8.96059V14.6623ZM97.3415 15.9262L97.2123 13.2405L102.024 8.17067H104.609L100.271 12.8383L98.9788 14.2171L97.3415 15.9262ZM95.259 18.2241V8.17067H97.5713V18.2241H95.259ZM102.138 18.2241L98.5623 13.8437L100.085 12.1921L104.853 18.2241H102.138ZM103.819 18.2241L108.3 8.17067H110.598L115.093 18.2241H112.652L108.975 9.34836H109.894L106.203 18.2241H103.819ZM106.059 16.0698L106.677 14.3033H111.847L112.479 16.0698H106.059Z" fill="black"/>
<path d="M12.25 12.8838L-8.65948 32.0894L-8.65948 -6.32185L12.25 12.8838Z" fill="#FF2424"/>
</g>
<defs>
<clipPath id="clip0_3_505">
<rect width="119.431" height="26.4483" fill="white"/>
</clipPath>
</defs>
</svg>
