<svg width="120" height="28" viewBox="0 0 120 28" fill="none" xmlns="http://www.w3.org/2000/svg">
<g clip-path="url(#clip0_1_7789)">
<rect width="119.431" height="26.4483" transform="translate(0 0.775864)" fill="black"/>
<path d="M23.2927 8.94654H25.6194V19H23.2927V8.94654ZM18.7256 19H16.3989V8.94654H18.7256V19ZM23.4651 14.8781H18.5533V12.9105H23.4651V14.8781ZM32.5939 19.1723C31.7992 19.1723 31.0619 19.0431 30.3821 18.7846C29.7119 18.526 29.1278 18.1622 28.6299 17.693C28.1416 17.2239 27.7586 16.6733 27.481 16.0414C27.2129 15.4095 27.0788 14.7201 27.0788 13.9733C27.0788 13.2264 27.2129 12.5371 27.481 11.9051C27.7586 11.2732 28.1464 10.7226 28.6443 10.2535C29.1422 9.78432 29.7262 9.42048 30.3965 9.16197C31.0667 8.90345 31.7944 8.77419 32.5795 8.77419C33.3742 8.77419 34.1019 8.90345 34.7625 9.16197C35.4328 9.42048 36.012 9.78432 36.5003 10.2535C36.9982 10.7226 37.386 11.2732 37.6637 11.9051C37.9413 12.5275 38.0802 13.2169 38.0802 13.9733C38.0802 14.7201 37.9413 15.4143 37.6637 16.0558C37.386 16.6877 36.9982 17.2382 36.5003 17.7074C36.012 18.167 35.4328 18.526 34.7625 18.7846C34.1019 19.0431 33.379 19.1723 32.5939 19.1723ZM32.5795 17.1904C33.0295 17.1904 33.4412 17.1138 33.8146 16.9606C34.1976 16.8074 34.5327 16.5872 34.82 16.2999C35.1072 16.0127 35.3274 15.6728 35.4806 15.2802C35.6434 14.8876 35.7248 14.452 35.7248 13.9733C35.7248 13.4945 35.6434 13.0589 35.4806 12.6663C35.3274 12.2737 35.1072 11.9338 34.82 11.6466C34.5423 11.3594 34.212 11.1391 33.829 10.9859C33.446 10.8328 33.0295 10.7562 32.5795 10.7562C32.1295 10.7562 31.713 10.8328 31.33 10.9859C30.9566 11.1391 30.6263 11.3594 30.339 11.6466C30.0518 11.9338 29.8268 12.2737 29.664 12.6663C29.5108 13.0589 29.4342 13.4945 29.4342 13.9733C29.4342 14.4424 29.5108 14.8781 29.664 15.2802C29.8268 15.6728 30.047 16.0127 30.3247 16.2999C30.6119 16.5872 30.947 16.8074 31.33 16.9606C31.713 17.1138 32.1295 17.1904 32.5795 17.1904ZM39.5415 19V8.94654H43.8932C44.7932 8.94654 45.5688 9.09494 46.2199 9.39176C46.871 9.679 47.3736 10.0955 47.7279 10.6413C48.0822 11.187 48.2593 11.8381 48.2593 12.5945C48.2593 13.3413 48.0822 13.9876 47.7279 14.5334C47.3736 15.0696 46.871 15.4813 46.2199 15.7685C45.5688 16.0558 44.7932 16.1994 43.8932 16.1994H40.8341L41.8682 15.1797V19H39.5415ZM45.9326 19L43.4193 15.352H45.9039L48.446 19H45.9326ZM41.8682 15.4382L40.8341 14.3467H43.764C44.4821 14.3467 45.0183 14.1935 45.3725 13.8871C45.7268 13.5711 45.9039 13.1403 45.9039 12.5945C45.9039 12.0392 45.7268 11.6083 45.3725 11.3019C45.0183 10.9955 44.4821 10.8423 43.764 10.8423H40.8341L41.8682 9.73645V15.4382ZM54.282 19.1723C52.8554 19.1723 51.74 18.775 50.9357 17.9803C50.1314 17.1856 49.7293 16.051 49.7293 14.5765V8.94654H52.0559V14.4903C52.0559 15.4478 52.2522 16.1371 52.6448 16.5584C53.0373 16.9797 53.5879 17.1904 54.2964 17.1904C55.0049 17.1904 55.5555 16.9797 55.948 16.5584C56.3406 16.1371 56.5369 15.4478 56.5369 14.4903V8.94654H58.8348V14.5765C58.8348 16.051 58.4327 17.1856 57.6284 17.9803C56.8241 18.775 55.7087 19.1723 54.282 19.1723ZM60.8467 19V8.94654H62.7713L67.0512 16.0414H66.0315L70.2395 8.94654H72.1497L72.1784 19H69.9954L69.981 12.2929H70.3832L67.0224 17.9372H65.974L62.5415 12.2929H63.0298V19H60.8467ZM72.9551 19L77.4361 8.94654H79.734L84.2293 19H81.7878L78.1111 10.1242H79.0302L75.3392 19H72.9551ZM75.1956 16.8457L75.8131 15.0791H80.9835L81.6154 16.8457H75.1956ZM84.9851 19V8.94654H89.3368C90.2368 8.94654 91.0124 9.09494 91.6635 9.39176C92.3146 9.679 92.8172 10.0955 93.1715 10.6413C93.5258 11.187 93.7029 11.8381 93.7029 12.5945C93.7029 13.3413 93.5258 13.9876 93.1715 14.5334C92.8172 15.0696 92.3146 15.4813 91.6635 15.7685C91.0124 16.0558 90.2368 16.1994 89.3368 16.1994H86.2777L87.3118 15.1797V19H84.9851ZM91.3762 19L88.8629 15.352H91.3475L93.8896 19H91.3762ZM87.3118 15.4382L86.2777 14.3467H89.2076C89.9257 14.3467 90.4619 14.1935 90.8161 13.8871C91.1704 13.5711 91.3475 13.1403 91.3475 12.5945C91.3475 12.0392 91.1704 11.6083 90.8161 11.3019C90.4619 10.9955 89.9257 10.8423 89.2076 10.8423H86.2777L87.3118 9.73645V15.4382ZM97.3415 16.7021L97.2123 14.0163L102.024 8.94654H104.609L100.271 13.6142L98.9788 14.993L97.3415 16.7021ZM95.259 19V8.94654H97.5713V19H95.259ZM102.138 19L98.5623 14.6196L100.085 12.9679L104.853 19H102.138ZM103.819 19L108.3 8.94654H110.598L115.093 19H112.652L108.975 10.1242H109.894L106.203 19H103.819ZM106.059 16.8457L106.677 15.0791H111.847L112.479 16.8457H106.059Z" fill="white"/>
<path d="M12.25 13.6595L-8.65948 32.8651L-8.65948 -5.54614L12.25 13.6595Z" fill="#FF2424"/>
</g>
<defs>
<clipPath id="clip0_1_7789">
<rect width="119.431" height="26.4483" fill="white" transform="translate(0 0.775864)"/>
</clipPath>
</defs>
</svg>
