<svg width="20" height="20" viewBox="0 0 20 20" fill="none" xmlns="http://www.w3.org/2000/svg">
<path d="M4.2155 9.78516C5.81429 9.98183 7.27597 8.79466 7.48026 7.13356C7.68454 5.47249 5.7824 3.87161 6.47337 1.66675C3.054 2.16216 1.87549 4.91769 1.69054 6.42151C1.48626 8.08259 2.61671 9.58858 4.2155 9.78516Z" stroke="#FF2424" stroke-linejoin="round"/>
<path d="M5.83335 16.6667C4.22949 12.7702 3.97495 9.3285 4.27731 6.66675" stroke="#FF2424" stroke-linecap="round" stroke-linejoin="round"/>
<path d="M7.92322 14.7234C8.90234 16.7168 11.2672 17.2666 13.2053 15.9513C15.1433 14.6359 15.4482 10.9915 18.3333 9.72092C15.2545 6.3104 11.4143 7.54166 9.65967 8.73242C7.72156 10.0478 6.94413 12.73 7.92322 14.7234Z" stroke="#FF2424" stroke-linejoin="round"/>
<path d="M5 18.3334C6.98148 14.9204 9.387 12.8584 11.6667 11.6667" stroke="#FF2424" stroke-linecap="round" stroke-linejoin="round"/>
</svg>
