<svg width="20" height="20" viewBox="0 0 20 20" fill="none" xmlns="http://www.w3.org/2000/svg">
<path d="M8.34956 6.66675C7.77118 5.88961 6.78569 4.80177 7.16985 3.73034C7.42545 3.01746 9.17223 1.66675 9.99998 1.66675C10.8277 1.66675 12.5745 3.01746 12.8301 3.73034C13.2143 4.80177 12.2287 5.88961 11.6504 6.66675" stroke="#FF2424" stroke-linecap="round" stroke-linejoin="round"/>
<path d="M6.66669 6.66675H13.3334" stroke="#FF2424" stroke-linecap="round" stroke-linejoin="round"/>
<path d="M6.66669 10.8333H13.3334" stroke="#FF2424" stroke-linejoin="round"/>
<path d="M6.25 15H13.75" stroke="#FF2424" stroke-linejoin="round"/>
<path d="M7.91665 6.66675L5.83331 18.3334M12.0833 6.66675L14.1666 18.3334" stroke="#FF2424" stroke-linecap="round" stroke-linejoin="round"/>
<path d="M4.16669 18.3333H15.8334" stroke="#FF2424" stroke-linecap="round" stroke-linejoin="round"/>
<path d="M15.8333 6.24992L17.5 5.83325M15.8333 8.74992L17.5 9.16659" stroke="#FF2424" stroke-linecap="round" stroke-linejoin="round"/>
<path d="M4.16667 6.24992L2.5 5.83325M4.16667 8.74992L2.5 9.16659" stroke="#FF2424" stroke-linecap="round" stroke-linejoin="round"/>
</svg>
