<svg width="24" height="25" viewBox="0 0 24 25" fill="none" xmlns="http://www.w3.org/2000/svg">
<path d="M16 7.08594C16 6.15597 16 5.69098 15.8978 5.30948C15.6204 4.2742 14.8117 3.46556 13.7765 3.18816C13.395 3.08594 12.93 3.08594 12 3.08594C11.07 3.08594 10.605 3.08594 10.2235 3.18816C9.18827 3.46556 8.37962 4.2742 8.10222 5.30948C8 5.69098 8 6.15597 8 7.08594M5.2 21.0859H18.8C19.9201 21.0859 20.4802 21.0859 20.908 20.868C21.2843 20.6762 21.5903 20.3702 21.782 19.9939C22 19.5661 22 19.006 22 17.8859V10.2859C22 9.16583 22 8.60578 21.782 8.17796C21.5903 7.80163 21.2843 7.49567 20.908 7.30392C20.4802 7.08594 19.9201 7.08594 18.8 7.08594H5.2C4.07989 7.08594 3.51984 7.08594 3.09202 7.30392C2.71569 7.49567 2.40973 7.80163 2.21799 8.17796C2 8.60578 2 9.16583 2 10.2859V17.8859C2 19.006 2 19.5661 2.21799 19.9939C2.40973 20.3702 2.71569 20.6762 3.09202 20.868C3.51984 21.0859 4.0799 21.0859 5.2 21.0859Z" stroke="#697586" stroke-width="2" stroke-linecap="round" stroke-linejoin="round"/>
</svg>
