<svg width="24" height="25" viewBox="0 0 24 25" fill="none" xmlns="http://www.w3.org/2000/svg">
<path d="M20.5 17.0145V10.0859C20.5 6.3147 20.5 4.42909 19.3284 3.25751C18.1569 2.08594 16.2712 2.08594 12.5 2.08594H11.5C7.72876 2.08594 5.84315 2.08594 4.67157 3.25751C3.5 4.42909 3.5 6.3147 3.5 10.0859V19.5859" stroke="white" stroke-width="1.5" stroke-linecap="round"/>
<path d="M20.5 17.0859H6C4.61929 17.0859 3.5 18.2052 3.5 19.5859C3.5 20.9666 4.61929 22.0859 6 22.0859H20.5" stroke="white" stroke-width="1.5" stroke-linecap="round"/>
<path d="M20.5 17.0859C19.1193 17.0859 18 18.2052 18 19.5859C18 20.9666 19.1193 22.0859 20.5 22.0859" stroke="white" stroke-width="1.5" stroke-linecap="round"/>
<path d="M8 7.45948C9.14883 6.59078 10.5209 6.08594 11.9946 6.08594C13.4729 6.08594 14.849 6.59397 16 7.46771M14.1743 9.80385C13.5182 9.42357 12.7779 9.20962 11.9946 9.20962C11.2152 9.20962 10.4784 9.42143 9.82477 9.79813M12 12.0859H12.0064" stroke="white" stroke-width="1.5" stroke-linecap="round"/>
</svg>
