<svg width="24" height="25" viewBox="0 0 24 25" fill="none" xmlns="http://www.w3.org/2000/svg">
<path d="M20 13.0859V17.8859C20 19.006 20 19.5661 19.782 19.9939C19.5903 20.3702 19.2843 20.6762 18.908 20.868C18.4802 21.0859 17.9201 21.0859 16.8 21.0859H7.2C6.0799 21.0859 5.51984 21.0859 5.09202 20.868C4.71569 20.6762 4.40973 20.3702 4.21799 19.9939C4 19.5661 4 19.006 4 17.8859V13.0859M9 10.0859H15M9.28571 14.0859H14.7143C16.8467 14.0859 17.913 14.0859 18.7355 13.6898C19.552 13.2966 20.2107 12.6379 20.6039 11.8215C21 10.9989 21 9.93268 21 7.80022C21 6.20088 21 5.40121 20.7029 4.78429C20.408 4.17196 19.914 3.67791 19.3017 3.38303C18.6847 3.08594 17.8851 3.08594 16.2857 3.08594H7.71429C6.11494 3.08594 5.31527 3.08594 4.69835 3.38303C4.08603 3.67791 3.59197 4.17196 3.29709 4.78429C3 5.40121 3 6.20088 3 7.80022C3 9.93268 3 10.9989 3.39612 11.8215C3.7893 12.6379 4.44803 13.2966 5.26447 13.6898C6.08703 14.0859 7.15326 14.0859 9.28571 14.0859Z" stroke="#697586" stroke-width="2" stroke-linecap="round" stroke-linejoin="round"/>
</svg>
