<svg width="22" height="22" viewBox="0 0 22 22" fill="none" xmlns="http://www.w3.org/2000/svg">
<path d="M21 10.6526C21 15.9358 16.5222 20.2193 11 20.2193C10.3507 20.2202 9.7032 20.1601 9.0654 20.0404C8.60633 19.9541 8.37678 19.911 8.21653 19.9355C8.05627 19.96 7.82918 20.0807 7.37499 20.3223C6.09014 21.0056 4.59195 21.2469 3.15111 20.9789C3.69874 20.3053 4.07275 19.4971 4.23778 18.6307C4.33778 18.1007 4.09 17.5859 3.71889 17.209C2.03333 15.4974 1 13.191 1 10.6526C1 5.36951 5.47778 1.08594 11 1.08594C16.5222 1.08594 21 5.36951 21 10.6526Z" stroke="#697586" stroke-width="1.5" stroke-linejoin="round"/>
</svg>
