<svg width="24" height="25" viewBox="0 0 24 25" fill="none" xmlns="http://www.w3.org/2000/svg">
<path d="M19.5311 13.5705L18.1871 10.3785L19.5311 7.18653C19.5311 7.17053 19.5391 7.15053 19.5551 7.12653C19.5711 7.10253 19.5791 7.07453 19.5791 7.04253V6.89853C19.5791 6.70653 19.5111 6.54253 19.3751 6.40653C19.2391 6.27053 19.0831 6.20253 18.9071 6.20253H12.6671V4.90653C12.6671 4.71453 12.6031 4.55453 12.4751 4.42653C12.3471 4.29853 12.1871 4.23453 11.9951 4.23453H5.73113V1.97853C5.73113 1.78653 5.66713 1.62653 5.53913 1.49853C5.41113 1.37053 5.25113 1.30653 5.05913 1.30653C4.86713 1.30653 4.71113 1.37053 4.59113 1.49853C4.47113 1.62653 4.41113 1.78653 4.41113 1.97853V23.7225C4.41113 23.9145 4.47913 24.0745 4.61513 24.2025C4.75113 24.3305 4.91513 24.3945 5.10713 24.3945C5.29913 24.3945 5.45913 24.3305 5.58713 24.2025C5.71513 24.0745 5.77913 23.9145 5.77913 23.7225V12.5145H11.3951V13.4025C11.3951 13.7065 11.4991 13.9665 11.7071 14.1825C11.9151 14.3985 12.1711 14.5065 12.4751 14.5065H18.9791C19.1551 14.5065 19.3111 14.4385 19.4471 14.3025C19.5831 14.1665 19.6511 14.0105 19.6511 13.8345C19.6191 13.8025 19.5951 13.7465 19.5791 13.6665L19.5311 13.5705ZM5.73113 11.1945V5.57853H11.3471V11.1945H5.73113ZM12.6671 10.8585V7.57053H17.9471L16.7471 10.3785L17.9471 13.1865H12.6671V10.8585Z" fill="white"/>
</svg>
