<svg width="25" height="25" viewBox="0 0 25 25" fill="none" xmlns="http://www.w3.org/2000/svg">
<path d="M23.8423 5.6026C23.7303 5.4746 23.5783 5.4106 23.3863 5.4106C23.1943 5.4106 23.0343 5.4746 22.9063 5.6026L9.22629 18.8986C9.09829 18.9946 8.97029 18.9946 8.84229 18.8986L2.07429 12.2986C1.94629 12.1706 1.79029 12.1066 1.60629 12.1066C1.42229 12.1066 1.26629 12.1666 1.13829 12.2866C1.01029 12.4066 0.946289 12.5626 0.946289 12.7546C0.946289 12.9466 1.01029 13.1066 1.13829 13.2346L7.90629 19.8346C8.22629 20.1226 8.59829 20.2666 9.02229 20.2666C9.44629 20.2666 9.80229 20.1226 10.0903 19.8346L23.7703 6.5386C23.9303 6.4266 24.0143 6.2746 24.0223 6.0826C24.0303 5.8906 23.9703 5.7306 23.8423 5.6026Z" fill="white"/>
</svg>
