<svg width="24" height="25" viewBox="0 0 24 25" fill="none" xmlns="http://www.w3.org/2000/svg">
<path d="M5.79796 24.3704C5.46196 24.3704 5.17396 24.2824 4.93396 24.1064C4.69396 23.9304 4.51396 23.7064 4.39396 23.4344C4.27396 23.1624 4.24596 22.8744 4.30996 22.5704L5.31796 16.1864L0.92596 11.6504C0.71796 11.4424 0.58196 11.1904 0.51796 10.8944C0.45396 10.5984 0.46596 10.3104 0.55396 10.0304C0.64196 9.75038 0.78996 9.52238 0.99796 9.34638C1.20596 9.17038 1.45396 9.05038 1.74196 8.98638L7.86196 8.00238L10.598 2.19438C10.726 1.93838 10.914 1.73038 11.162 1.57038C11.41 1.41038 11.67 1.33038 11.942 1.33038C12.246 1.33038 12.518 1.40638 12.758 1.55838C12.998 1.71038 13.182 1.92238 13.31 2.19438L16.118 7.97838L22.238 8.93838C22.51 8.98638 22.754 9.10638 22.97 9.29838C23.186 9.49038 23.338 9.72638 23.426 10.0064C23.514 10.2864 23.526 10.5704 23.462 10.8584C23.398 11.1464 23.262 11.3944 23.054 11.6024L18.638 16.1384L19.67 22.5704C19.734 22.8744 19.706 23.1624 19.586 23.4344C19.466 23.7064 19.29 23.9264 19.058 24.0944C18.826 24.2624 18.57 24.3544 18.29 24.3704C18.01 24.3864 17.734 24.3304 17.462 24.2024L11.99 21.2024L6.51796 24.2024C6.30996 24.3144 6.06996 24.3704 5.79796 24.3704ZM1.86196 10.7384L6.39796 15.3944C6.65396 15.6504 6.74196 15.9544 6.66196 16.3064L5.60596 22.7864C5.58996 22.8504 5.62196 22.9224 5.70196 23.0024L5.72596 23.0504C5.78996 23.1144 5.85396 23.1144 5.91796 23.0504L11.534 19.9784C11.854 19.8344 12.166 19.8344 12.47 19.9784L18.134 23.0024C18.182 23.0344 18.238 23.0344 18.302 23.0024C18.366 22.9384 18.398 22.8584 18.398 22.7624L17.342 16.2344C17.31 15.8664 17.398 15.5624 17.606 15.3224L22.118 10.6664C22.182 10.6184 22.206 10.5384 22.19 10.4264V10.3784C22.19 10.3464 22.174 10.3144 22.142 10.2824C22.11 10.2504 22.078 10.2344 22.046 10.2344L15.734 9.25038C15.398 9.20238 15.15 9.01838 14.99 8.69838L12.182 2.77038C12.15 2.69038 12.086 2.65038 11.99 2.65038C11.942 2.65038 11.878 2.69038 11.798 2.77038L8.98996 8.72238C8.82996 9.05838 8.58196 9.25038 8.24596 9.29838L1.98196 10.3064C1.88596 10.3064 1.83796 10.3544 1.83796 10.4504C1.80596 10.4824 1.78996 10.5264 1.78996 10.5824C1.78996 10.6384 1.81396 10.6904 1.86196 10.7384Z" fill="white"/>
</svg>
