<svg width="24" height="24" viewBox="0 0 24 24" fill="none" xmlns="http://www.w3.org/2000/svg">
<path d="M21 3.5C22.1 3.5 23 4.4 23 5.5V18.5C23 19.6 22.1 20.5 21 20.5H3C1.9 20.5 1 19.6 1 18.5V5.5C1 4.4 1.9 3.5 3 3.5H21ZM12 18.5H20C20.55 18.5 21 18.05 21 17.5V6.5C21 5.95 20.55 5.5 20 5.5H12V18.5ZM19.25 14C19.66 14 20 14.34 20 14.75C20 15.16 19.66 15.5 19.25 15.5H13.75C13.34 15.5 13 15.16 13 14.75C13 14.34 13.34 14 13.75 14H19.25ZM19.25 11.5C19.66 11.5 20 11.84 20 12.25C20 12.66 19.66 13 19.25 13H13.75C13.34 13 13 12.66 13 12.25C13 11.84 13.34 11.5 13.75 11.5H19.25ZM19.25 9C19.66 9 20 9.34 20 9.75C20 10.16 19.66 10.5 19.25 10.5H13.75C13.34 10.5 13 10.16 13 9.75C13 9.34 13.34 9 13.75 9H19.25Z" fill="#1B1B1B" fill-opacity="0.6"/>
</svg>
