<svg width="18" height="18" viewBox="0 0 18 18" fill="none" xmlns="http://www.w3.org/2000/svg">
<path d="M17 0C17.55 0 18 0.45 18 1V17C18 17.55 17.55 18 17 18H1C0.45 18 0 17.55 0 17V1C0 0.45 0.45 0 1 0H17ZM2 2V16H16V2H2ZM6 12V14H4V12H6ZM13 12C13.55 12 14 12.45 14 13C14 13.55 13.55 14 13 14H9C8.45 14 8 13.55 8 13C8 12.45 8.45 12 9 12H13ZM6 8V10H4V8H6ZM13 8C13.55 8 14 8.45 14 9C14 9.55 13.55 10 13 10H9C8.45 10 8 9.55 8 9C8 8.45 8.45 8 9 8H13ZM6 4V6H4V4H6ZM13 4C13.55 4 14 4.45 14 5C14 5.55 13.55 6 13 6H9C8.45 6 8 5.55 8 5C8 4.45 8.45 4 9 4H13Z" fill="#1B1B1B" fill-opacity="0.6"/>
</svg>
