<svg width="18" height="18" viewBox="0 0 18 18" fill="none" xmlns="http://www.w3.org/2000/svg">
<path d="M11 1.45166C11.0002 0.821788 11.63 0.37208 12.21 0.602051C15.5998 1.89201 17.9998 5.16166 18 9.00146C18 12.8415 15.6 16.1119 12.21 17.4019C11.6301 17.6218 11.0002 17.1821 11 16.5522V16.3521C11 15.9721 11.2397 15.6415 11.5996 15.5015C14.1796 14.4715 16 11.9415 16 9.00146C15.9998 6.06165 14.1795 3.53141 11.5996 2.50146C11.2499 2.36135 11 2.03168 11 1.65186V1.45166ZM7.29004 2.70166C7.91999 2.07194 8.99977 2.52187 9 3.41162V14.5815C9 15.4715 7.92004 15.9215 7.29004 15.2915L4 12.0015H1C0.45 12.0015 0 11.5515 0 11.0015V7.00146C0.000239274 6.45166 0.450146 6.00146 1 6.00146H4L7.29004 2.70166ZM11 4.97217C12.4798 5.71213 13.4998 7.23169 13.5 9.00146C13.5 10.7715 12.48 12.292 11 13.022V4.97217Z" fill="#1B1B1B" fill-opacity="0.6"/>
</svg>
