<svg width="22" height="20" viewBox="0 0 22 20" fill="none" xmlns="http://www.w3.org/2000/svg">
<path d="M14.6396 0.249463C14.8396 0.0495607 15.1496 0.0497561 15.3496 0.249463C15.5496 0.449463 15.5496 0.759424 15.3496 0.959424L12.4102 3.89985H20C21.1 3.89985 22 4.78985 22 5.89985V17.8999C21.9999 18.9998 21.0999 19.8999 20 19.8999H2C0.900065 19.8999 0.000106941 18.9998 0 17.8999V5.89985C0 4.78985 0.9 3.89985 2 3.89985H9.58984L6.65039 0.959424C6.45039 0.759424 6.45039 0.449463 6.65039 0.249463C6.8504 0.0497558 7.16045 0.0495606 7.36035 0.249463L11 3.89009L14.6396 0.249463ZM3 5.89985C2.45 5.89985 2 6.34985 2 6.89985V16.8999C2.00011 17.4498 2.45006 17.8999 3 17.8999H19C19.5499 17.8999 19.9999 17.4498 20 16.8999V6.89985C20 6.34985 19.55 5.89985 19 5.89985H3ZM8 9.61958C8.00006 8.85966 8.83004 8.36956 9.5 8.74946L13.4805 11.0297C14.15 11.4198 14.1501 12.39 13.4805 12.77L9.5 15.0493C8.83 15.4293 8 14.9394 8 14.1694V9.61958Z" fill="#1B1B1B" fill-opacity="0.6"/>
</svg>
