<svg width="127" height="125" viewBox="0 0 127 125" fill="none" xmlns="http://www.w3.org/2000/svg">
<path d="M14.2021 52.1454C15.2548 52.1454 16.1161 53.0067 16.1161 54.0594C16.1161 55.1149 15.2548 55.9735 14.2021 55.9735H1.9165C0.86377 55.9735 0.00244141 55.1122 0.00244141 54.0594C0.00244141 53.0067 0.86377 52.1454 1.9165 52.1454H14.2021ZM75.597 20.5305C75.061 21.4383 73.8989 21.7555 72.9856 21.2196C72.0724 20.6918 71.7607 19.5215 72.2884 18.6165L78.4352 7.97427C78.963 7.06099 80.1333 6.74927 81.0384 7.277C81.9517 7.80474 82.2634 8.97505 81.7356 9.88833L75.597 20.5305ZM89.4794 35.7993C88.5661 36.327 87.3931 36.0153 86.8681 35.102C86.3403 34.1942 86.6521 33.0239 87.5653 32.4989L98.1993 26.352C99.1153 25.8243 100.286 26.136 100.811 27.0493C101.338 27.9625 101.027 29.1274 100.113 29.6606L89.4794 35.7993ZM20.4938 32.4961C21.4071 33.0239 21.7188 34.1942 21.1911 35.0993C20.6552 36.0125 19.4931 36.3243 18.5798 35.7965L7.9376 29.6606C7.02978 29.1247 6.7126 27.9625 7.24853 27.0493C7.77627 26.136 8.94658 25.8243 9.85166 26.352L20.4938 32.4961ZM35.7653 18.6137C36.3013 19.5215 35.9813 20.6918 35.0763 21.2168C34.163 21.7528 32.9899 21.4329 32.4649 20.5278L26.3181 9.8856C25.7903 8.97231 26.1021 7.79927 27.0153 7.27427C27.9286 6.74653 29.1017 7.05825 29.6267 7.97153L35.7653 18.6137ZM55.9396 14.236C55.9396 15.2915 55.0864 16.15 54.0255 16.15C52.9728 16.15 52.1114 15.2887 52.1114 14.236V1.95044C52.1114 0.889502 52.9728 0.036377 54.0255 0.036377C55.0864 0.036377 55.9396 0.889502 55.9396 1.95044V14.236ZM18.5798 72.3223C19.4958 71.7946 20.6579 72.1063 21.1911 73.0196C21.7188 73.9274 21.4071 75.0977 20.4938 75.6227L9.85166 81.7696C8.94385 82.2973 7.77353 81.9856 7.24853 81.0723C6.7126 80.159 7.03252 78.9942 7.9376 78.461L18.5798 72.3223ZM114.592 41.4567H121.567C124.49 41.4567 126.877 43.8438 126.877 46.7668V67.6547C126.877 70.5778 124.49 72.9567 121.567 72.9567H114.592C112.932 72.9567 111.428 72.1883 110.444 70.9579C101.568 71.2067 101.289 75.8551 94.0895 75.8551H84.1528C82.4876 75.8551 80.8579 75.5516 79.3075 74.9719C74.9435 80.5063 70.8583 84.2196 69.4638 92.4801C74.588 95.0067 74.3556 102.37 69.1138 104.588C71.3614 108.424 69.2368 113.316 64.9821 114.393V117.418C64.9821 121.084 61.9907 124.068 58.3321 124.068H49.7216C46.0548 124.068 43.0634 121.084 43.0634 117.418V114.393C38.8087 113.316 36.6923 108.424 38.9399 104.588C33.6927 102.37 33.4685 95.0067 38.5845 92.4801C35.7872 75.9153 20.9669 75.9864 20.9669 51.377C20.9669 33.1223 35.7708 18.3184 54.0255 18.3184C67.4567 18.3184 79.3786 26.4094 84.5028 38.5637H91.9513C97.8876 38.5637 99.9028 39.8735 101.965 41.2215C103.583 42.2743 105.243 43.368 110.444 43.461C111.431 42.2332 112.932 41.4567 114.592 41.4567ZM121.567 45.2848H114.592C113.785 45.2848 113.113 45.952 113.113 46.7641V67.652C113.113 68.4586 113.788 69.1313 114.592 69.1313H121.567C122.382 69.1313 123.047 68.4559 123.047 67.652V46.7641C123.049 45.952 122.382 45.2848 121.567 45.2848ZM87.0595 53.0204C87.5325 56.8102 90.0044 60.1051 93.5946 61.5844C94.5708 61.9864 95.0356 63.0965 94.6337 64.0727C94.2317 65.0489 93.1216 65.5137 92.1454 65.1118C89.8207 64.1539 87.7852 62.6075 86.2392 60.6247C85.2849 65.2895 83.6278 68.7622 81.681 71.7153C82.4794 71.9176 83.2997 72.0243 84.1528 72.0243H94.0895C99.561 72.0243 100.469 67.7313 109.29 67.1707V47.2508C98.5001 46.7696 101.71 42.3918 91.9513 42.3918H76.6661C74.1614 42.3918 72.8216 45.4543 74.6427 47.2754C75.1622 47.8032 75.8841 48.1204 76.6661 48.1204H85.1837C86.2392 48.1204 87.0977 48.9817 87.0977 50.0344L87.0595 53.0204ZM83.2313 53.0832C83.1931 52.7114 83.1685 52.3313 83.1685 51.9512H75.9989C73.5188 51.9512 71.3095 50.5868 70.1474 48.5032C65.0231 52.1454 57.8454 48.4813 57.8454 42.1485C57.8454 41.3965 57.9548 40.661 58.1626 39.9637H48.0153V49.4575C48.0153 50.8848 46.3884 52.0387 44.8845 50.945C44.3431 50.543 43.4435 50.3161 42.7298 50.3161C39.2106 50.3161 37.4442 54.5872 39.9325 57.0754C41.2505 58.3934 43.4271 58.6012 44.8845 57.6032C45.2864 57.3325 45.5599 57.1766 46.1013 57.1766C47.1567 57.1766 48.0153 58.0297 48.0153 59.0907V76.0411H52.2892C51.2282 71.204 54.9333 66.5938 59.9017 66.5938C64.87 66.5938 68.5751 71.2067 67.5142 76.0411H73.497C78.17 70.3454 82.8294 65.3305 83.2313 53.0832ZM42.3524 91.7993H65.6985C66.5653 86.6614 68.3892 83.0082 70.5575 79.8692H64.5583C63.0626 79.8692 61.9935 78.1247 63.1091 76.7055C64.2247 75.2946 64.0935 72.9704 62.6989 71.5813C60.2106 69.093 55.9396 70.8594 55.9396 74.3786C55.9396 75.2782 56.2267 76.0985 56.7544 76.7957C57.7306 78.059 56.7708 79.8664 55.2423 79.8582V79.8664H37.4935C39.67 83.011 41.4939 86.6614 42.3524 91.7993ZM63.3661 105.107H44.6876C42.2239 105.107 40.8978 108.129 42.6942 109.928C43.3833 110.617 44.0751 110.757 44.9802 110.757H63.3661C65.838 110.757 67.1642 107.741 65.3649 105.944C64.8454 105.425 64.1399 105.107 63.3661 105.107ZM66.5353 95.6274H41.5157C39.0521 95.6274 37.7259 98.6489 39.5224 100.448C40.0337 100.959 40.7392 101.277 41.5157 101.277H66.5353C69.0071 101.277 70.3333 98.2606 68.5341 96.4559C68.0173 95.9473 67.3118 95.6274 66.5353 95.6274ZM44.1899 61.9262C39.3993 62.8395 34.9423 59.1508 34.9423 54.2672C34.9423 49.3918 39.3993 45.7032 44.1899 46.6165V23.8446C32.7274 27.9461 24.7978 38.859 24.7978 51.377C24.7978 64.8547 29.6731 70.0801 34.5567 76.0411H44.1899V61.9262ZM48.0181 36.1329H61.4356C63.0407 36.1329 64.0853 38.1098 62.7235 39.4661C62.0646 40.1168 61.6763 41.1942 61.6763 42.1485C61.6763 45.6676 65.9474 47.4422 68.4356 44.954C69.9778 43.4118 69.986 40.9317 68.4739 39.3813C67.2954 38.1727 68.1649 36.1411 69.8384 36.1411V36.1329H78.9767C72.5673 25.6602 60.2435 20.2133 48.0181 22.77V36.1329ZM61.1567 114.588H46.8942V117.418C46.8942 118.968 48.1739 120.248 49.7243 120.248H58.3349C59.8853 120.248 61.1567 118.968 61.1567 117.418V114.588ZM45.8634 57.1903C45.8716 57.1821 45.8853 57.1821 45.9017 57.1821L45.8634 57.1903Z" fill="#FF2424"/>
</svg>
